<svg width="464" height="412" viewBox="0 0 464 412" fill="none" xmlns="http://www.w3.org/2000/svg">
<path d="M451 1H8V412H451V1Z" fill="#EFEFEF"/>
<path d="M450 395.989L8 396" stroke="#263238" stroke-linecap="round" stroke-linejoin="round"/>
<path d="M425.1 107.811H266.92V396.141H425.1V107.811Z" fill="#445964" stroke="#EBEBEB" stroke-linecap="round" stroke-linejoin="round"/>
<path d="M412.58 121.831H276.94V272.001H412.58V121.831Z" fill="white" stroke="#EBEBEB" stroke-linecap="round" stroke-linejoin="round"/>
<path d="M336.53 249.791L323.95 256.241" stroke="#EBEBEB" stroke-linecap="round" stroke-linejoin="round"/>
<path d="M408.21 213.021L352.21 241.741" stroke="#EBEBEB" stroke-linecap="round" stroke-linejoin="round"/>
<path d="M300.26 171.021L294.79 173.831" stroke="#EBEBEB" stroke-linecap="round" stroke-linejoin="round"/>
<path d="M331.47 155.011L307.09 167.521" stroke="#EBEBEB" stroke-linecap="round" stroke-linejoin="round"/>
<path d="M412.58 288.021H276.94V380.121H412.58V288.021Z" fill="white" stroke="#EBEBEB" stroke-linecap="round" stroke-linejoin="round"/>
<path d="M419.99 237.301H415.05V289.971H419.99V237.301Z" fill="white"/>
<path d="M300.26 349.801L294.79 352.611" stroke="#EBEBEB" stroke-linecap="round" stroke-linejoin="round"/>
<path d="M331.47 333.781L307.09 346.291" stroke="#EBEBEB" stroke-linecap="round" stroke-linejoin="round"/>
<g opacity="0.3">
<path d="M52.0901 339.711H28.1401V351.111H52.0901V339.711Z" fill="#8A8A8A"/>
<path d="M79.4603 339.711H55.5103V351.111H79.4603V339.711Z" fill="#8A8A8A"/>
<path d="M79.4603 368.791H55.5103V380.191H79.4603V368.791Z" fill="#8A8A8A"/>
<path d="M218.02 368.791H194.07V380.191H218.02V368.791Z" fill="#8A8A8A"/>
<path d="M259.64 368.791H235.69V380.191H259.64V368.791Z" fill="#8A8A8A"/>
<path d="M52.0901 368.791H28.1401V380.191H52.0901V368.791Z" fill="#8A8A8A"/>
<path d="M150.17 368.791H126.22V380.191H150.17V368.791Z" fill="#8A8A8A"/>
<path d="M122.23 368.791H98.2803V380.191H122.23V368.791Z" fill="#8A8A8A"/>
<path d="M65.2103 353.961H41.2603V365.361H65.2103V353.961Z" fill="#8A8A8A"/>
<path d="M92.0101 353.961H68.0601V365.361H92.0101V353.961Z" fill="#8A8A8A"/>
<path d="M121.09 339.711H97.1401V351.111H121.09V339.711Z" fill="#8A8A8A"/>
<path d="M148.45 339.711H124.5V351.111H148.45V339.711Z" fill="#8A8A8A"/>
<path d="M134.2 353.961H110.25V365.361H134.2V353.961Z" fill="#8A8A8A"/>
<path d="M190.08 339.711H166.13V351.111H190.08V339.711Z" fill="#8A8A8A"/>
<path d="M217.45 339.711H193.5V351.111H217.45V339.711Z" fill="#8A8A8A"/>
<path d="M203.19 353.961H179.24V365.361H203.19V353.961Z" fill="#8A8A8A"/>
<path d="M230.56 353.961H206.61V365.361H230.56V353.961Z" fill="#8A8A8A"/>
</g>
<path d="M252.88 108.081H26.1001V314.311H252.88V108.081Z" fill="#FAFAFA" stroke="#858383" stroke-linecap="round" stroke-linejoin="round"/>
<path d="M61.5004 208.771L48.9204 215.221" stroke="#EBEBEB" stroke-linecap="round" stroke-linejoin="round"/>
<path d="M210.57 132.291L77.1802 200.721" stroke="#EBEBEB" stroke-linecap="round" stroke-linejoin="round"/>
<path d="M124.4 189.121L48.9204 227.841" stroke="#EBEBEB" stroke-linecap="round" stroke-linejoin="round"/>
<path d="M147.09 238.231L134.51 244.681" stroke="#EBEBEB" stroke-linecap="round" stroke-linejoin="round"/>
<path d="M218.77 201.461L162.77 230.181" stroke="#EBEBEB" stroke-linecap="round" stroke-linejoin="round"/>
<path d="M257.63 298.641H17.9302V327.641H257.63V298.641Z" fill="#8A8A8A" stroke="#EBEBEB" stroke-linecap="round" stroke-linejoin="round"/>
<path d="M107.19 298.641H104.05V327.641H107.19V298.641Z" fill="white" stroke="#EBEBEB" stroke-linecap="round" stroke-linejoin="round"/>
<path d="M128.86 298.641H125.72V327.641H128.86V298.641Z" fill="white" stroke="#EBEBEB" stroke-linecap="round" stroke-linejoin="round"/>
<path d="M85.5204 298.641H82.3804V327.641H85.5204V298.641Z" fill="white" stroke="#EBEBEB" stroke-linecap="round" stroke-linejoin="round"/>
<path d="M42.18 298.641H39.04V327.641H42.18V298.641Z" fill="white" stroke="#EBEBEB" stroke-linecap="round" stroke-linejoin="round"/>
<path d="M63.85 298.641H60.71V327.641H63.85V298.641Z" fill="white" stroke="#EBEBEB" stroke-linecap="round" stroke-linejoin="round"/>
<path d="M150.53 298.641H147.39V327.641H150.53V298.641Z" fill="white" stroke="#EBEBEB" stroke-linecap="round" stroke-linejoin="round"/>
<path d="M215.54 298.641H212.4V327.641H215.54V298.641Z" fill="white" stroke="#EBEBEB" stroke-linecap="round" stroke-linejoin="round"/>
<path d="M237.21 298.641H234.07V327.641H237.21V298.641Z" fill="white" stroke="#EBEBEB" stroke-linecap="round" stroke-linejoin="round"/>
<path d="M172.2 298.641H169.06V327.641H172.2V298.641Z" fill="white" stroke="#EBEBEB" stroke-linecap="round" stroke-linejoin="round"/>
<path d="M193.87 298.641H190.73V327.641H193.87V298.641Z" fill="white" stroke="#EBEBEB" stroke-linecap="round" stroke-linejoin="round"/>
<path d="M325.25 197.591L344.12 173.641L364.45 198.321" stroke="#263238" stroke-linecap="round" stroke-linejoin="round"/>
<path d="M373.88 193.961H312.91V225.901H373.88V193.961Z" fill="#5B1FF9" stroke="#263238" stroke-linecap="round" stroke-linejoin="round"/>
<path d="M325 217.321C324.665 217.738 324.232 218.067 323.741 218.278C323.249 218.489 322.713 218.576 322.18 218.531C321.632 218.571 321.082 218.474 320.58 218.251C320.078 218.028 319.638 217.685 319.3 217.251C318.578 216.15 318.227 214.846 318.3 213.531V205.961C318.3 203.375 318.967 201.758 320.3 201.111C320.872 200.857 321.494 200.734 322.12 200.751C324.56 200.751 325.78 202.301 325.78 205.381V207.771H323.22V205.541C323.253 204.894 323.179 204.245 323 203.621C322.933 203.443 322.811 203.291 322.65 203.188C322.49 203.085 322.3 203.037 322.11 203.051C321.911 203.038 321.713 203.091 321.547 203.201C321.381 203.311 321.255 203.473 321.19 203.661C320.988 204.263 320.9 204.897 320.93 205.531V213.641C320.893 214.318 320.977 214.995 321.18 215.641C321.243 215.826 321.366 215.985 321.528 216.094C321.691 216.202 321.885 216.254 322.08 216.241C322.276 216.252 322.47 216.198 322.632 216.088C322.795 215.977 322.917 215.817 322.98 215.631C323.171 214.983 323.252 214.307 323.22 213.631V211.141H325.82V213.641C325.933 214.923 325.647 216.209 325 217.321Z" fill="#E0E0E0"/>
<path d="M328.06 218.341V200.951H330.71V216.081H334.06V218.341H328.06Z" fill="#E0E0E0"/>
<path d="M342.05 217.281C341.706 217.714 341.261 218.055 340.753 218.273C340.245 218.491 339.691 218.58 339.14 218.531C338.587 218.576 338.031 218.486 337.521 218.268C337.01 218.051 336.56 217.712 336.21 217.281C335.508 216.144 335.18 214.815 335.27 213.481V205.531C335.27 202.341 336.58 200.741 339.18 200.741C339.726 200.692 340.277 200.777 340.782 200.99C341.288 201.202 341.734 201.536 342.08 201.961C342.734 203.033 343.041 204.279 342.96 205.531V213.481C343.056 214.812 342.738 216.139 342.05 217.281ZM338.17 215.641C338.243 215.84 338.382 216.008 338.564 216.118C338.746 216.227 338.96 216.27 339.17 216.241C339.374 216.262 339.579 216.212 339.751 216.099C339.922 215.986 340.049 215.817 340.11 215.621C340.302 214.935 340.379 214.223 340.34 213.511V205.411C340.375 204.799 340.297 204.185 340.11 203.601C340.041 203.421 339.914 203.269 339.75 203.167C339.585 203.066 339.392 203.022 339.2 203.041C338.996 203.021 338.791 203.064 338.612 203.164C338.433 203.264 338.289 203.417 338.2 203.601C337.987 204.176 337.895 204.789 337.93 205.401V213.511C337.897 214.23 337.978 214.948 338.17 215.641Z" fill="#E0E0E0"/>
<path d="M345 213.451V211.901H347.51V213.641C347.474 214.318 347.559 214.995 347.76 215.641C347.828 215.829 347.956 215.988 348.124 216.095C348.293 216.202 348.492 216.25 348.69 216.231C348.871 216.253 349.055 216.219 349.216 216.133C349.377 216.047 349.507 215.914 349.59 215.751C349.769 215.245 349.844 214.707 349.81 214.171C349.826 213.513 349.692 212.86 349.42 212.261C349.096 211.629 348.674 211.052 348.17 210.551L346.88 209.231C346.318 208.655 345.846 207.998 345.48 207.281C345.136 206.554 344.965 205.756 344.98 204.951C344.897 203.822 345.189 202.697 345.81 201.751C346.175 201.37 346.623 201.077 347.118 200.895C347.614 200.713 348.145 200.646 348.67 200.701C349.195 200.637 349.727 200.716 350.21 200.931C350.692 201.146 351.107 201.488 351.41 201.921C351.955 203.029 352.203 204.259 352.13 205.491V206.641H349.7V205.401C349.728 204.787 349.654 204.172 349.48 203.581C349.419 203.411 349.304 203.266 349.152 203.169C349 203.071 348.82 203.026 348.64 203.041C348.471 203.029 348.301 203.061 348.147 203.132C347.993 203.204 347.86 203.314 347.76 203.451C347.547 203.832 347.449 204.266 347.48 204.701C347.462 205.158 347.559 205.611 347.76 206.021C348.043 206.479 348.379 206.902 348.76 207.281L350.19 208.831C350.852 209.527 351.399 210.324 351.81 211.191C352.183 212.01 352.37 212.902 352.36 213.801C352.453 215.06 352.168 216.317 351.54 217.411C351.195 217.827 350.752 218.15 350.251 218.352C349.75 218.555 349.207 218.63 348.67 218.571C348.122 218.629 347.569 218.539 347.068 218.311C346.566 218.082 346.136 217.723 345.82 217.271C345.199 216.098 344.915 214.776 345 213.451Z" fill="#E0E0E0"/>
<path d="M354.3 218.341V200.951H360.13V203.231H357V208.291H360V210.521H357V216.061H360.3V218.341H354.3Z" fill="#E0E0E0"/>
<path d="M362.35 218.341V200.951H366.25C366.77 200.905 367.293 200.983 367.777 201.18C368.26 201.376 368.69 201.685 369.03 202.081C369.676 203.07 369.981 204.243 369.9 205.421V213.261C370.001 214.603 369.698 215.944 369.03 217.111C368.691 217.54 368.249 217.877 367.746 218.092C367.243 218.307 366.695 218.393 366.15 218.341H362.35ZM365 216.281H365.87C366.072 216.297 366.274 216.262 366.46 216.18C366.645 216.098 366.806 215.971 366.93 215.811C367.198 215.273 367.312 214.671 367.26 214.071V205.481C367.307 204.824 367.194 204.165 366.93 203.561C366.812 203.37 366.643 203.215 366.441 203.114C366.24 203.013 366.014 202.971 365.79 202.991H365V216.281Z" fill="#E0E0E0"/>
<path opacity="0.2" d="M387.36 34.6416H6.66016V141.281C6.66016 148.209 9.41208 154.853 14.3105 159.751C19.209 164.649 25.8527 167.401 32.7802 167.401H43.4202C46.8511 167.403 50.2487 166.728 53.4189 165.416C56.5891 164.104 59.4697 162.18 61.8963 159.754C64.3228 157.329 66.2477 154.449 67.5609 151.279C68.8742 148.11 69.5502 144.712 69.5502 141.281C69.5488 144.712 70.2236 148.109 71.5358 151.279C72.8479 154.448 74.7719 157.328 77.1976 159.754C79.6233 162.18 82.5033 164.104 85.6729 165.416C88.8425 166.728 92.2397 167.403 95.6702 167.401H106.31C109.741 167.403 113.138 166.728 116.307 165.416C119.477 164.104 122.357 162.18 124.783 159.754C127.208 157.328 129.132 154.448 130.445 151.279C131.757 148.109 132.431 144.712 132.43 141.281V138.281H133V141.281C133 144.712 133.676 148.11 134.989 151.279C136.303 154.449 138.228 157.329 140.654 159.754C143.081 162.18 145.961 164.104 149.131 165.416C152.302 166.728 155.699 167.403 159.13 167.401H169.77C176.698 167.401 183.341 164.649 188.24 159.751C193.138 154.853 195.89 148.209 195.89 141.281V138.281H196.46V141.281C196.46 148.209 199.212 154.853 204.111 159.751C209.009 164.649 215.653 167.401 222.58 167.401H233.22C236.651 167.403 240.049 166.728 243.219 165.416C246.389 164.104 249.27 162.18 251.696 159.754C254.123 157.329 256.048 154.449 257.361 151.279C258.674 148.11 259.35 144.712 259.35 141.281V138.281H259.92V141.281C259.918 148.203 262.663 154.842 267.553 159.74C272.444 164.638 279.079 167.393 286 167.401H296.64C300.071 167.403 303.468 166.728 306.637 165.416C309.807 164.104 312.687 162.18 315.113 159.754C317.538 157.328 319.462 154.448 320.775 151.279C322.087 148.109 322.761 144.712 322.76 141.281V138.281H323.34V141.281C323.339 144.712 324.014 148.109 325.326 151.279C326.638 154.448 328.562 157.328 330.988 159.754C333.413 162.18 336.293 164.104 339.463 165.416C342.633 166.728 346.03 167.403 349.46 167.401H360.1C363.531 167.403 366.928 166.728 370.097 165.416C373.267 164.104 376.147 162.18 378.573 159.754C380.998 157.328 382.922 154.448 384.235 151.279C385.547 148.109 386.221 144.712 386.22 141.281V138.281H386.79V141.281C386.79 144.719 387.469 148.123 388.787 151.298C390.105 154.473 392.037 157.356 394.472 159.783C396.907 162.209 399.797 164.132 402.977 165.439C406.156 166.746 409.562 167.413 413 167.401H423.63C427.061 167.403 430.459 166.728 433.629 165.416C436.799 164.104 439.68 162.18 442.106 159.754C444.533 157.329 446.458 154.449 447.771 151.279C449.084 148.11 449.76 144.712 449.76 141.281V34.6416H387.36Z" fill="black"/>
<path d="M69.5503 96.8311H132.44V107.281C132.44 114.209 129.688 120.853 124.79 125.751C119.891 130.649 113.248 133.401 106.32 133.401H95.6703C88.7428 133.401 82.0991 130.649 77.2007 125.751C72.3022 120.853 69.5503 114.209 69.5503 107.281V96.8311Z" fill="#5B1FF9" stroke="#263238" stroke-linecap="round" stroke-linejoin="round"/>
<path d="M6.66016 96.8311H69.5502V107.281C69.5502 110.711 68.8745 114.108 67.5619 117.277C66.2492 120.446 64.3253 123.325 61.8998 125.751C59.4743 128.176 56.5949 130.1 53.4258 131.413C50.2568 132.726 46.8603 133.401 43.4302 133.401H32.7802C25.8527 133.401 19.209 130.649 14.3105 125.751C9.41208 120.853 6.66016 114.209 6.66016 107.281V96.8311Z" fill="#E0E0E0" stroke="#263238" stroke-linecap="round" stroke-linejoin="round"/>
<path d="M133 96.8311H195.89V107.281C195.89 114.209 193.138 120.853 188.24 125.751C183.341 130.649 176.697 133.401 169.77 133.401H159.13C155.699 133.403 152.301 132.728 149.131 131.416C145.961 130.104 143.08 128.18 140.654 125.754C138.227 123.329 136.303 120.449 134.989 117.279C133.676 114.11 133 110.712 133 107.281V96.8311Z" fill="#E0E0E0" stroke="#263238" stroke-linecap="round" stroke-linejoin="round"/>
<path d="M196.46 96.8311H259.35V107.281C259.35 114.209 256.598 120.853 251.7 125.751C246.801 130.649 240.157 133.401 233.23 133.401H222.58C215.653 133.401 209.009 130.649 204.11 125.751C199.212 120.853 196.46 114.209 196.46 107.281V96.8311Z" fill="#5B1FF9" stroke="#263238" stroke-linecap="round" stroke-linejoin="round"/>
<path d="M259.92 96.8311H322.8V107.281C322.8 114.209 320.048 120.853 315.15 125.751C310.252 130.649 303.608 133.401 296.68 133.401H286C279.073 133.401 272.429 130.649 267.531 125.751C262.632 120.853 259.88 114.209 259.88 107.281V96.8311H259.92Z" fill="#E0E0E0" stroke="#263238" stroke-linecap="round" stroke-linejoin="round"/>
<path d="M323.38 96.8311H386.27V107.281C386.27 114.209 383.518 120.853 378.62 125.751C373.722 130.649 367.078 133.401 360.15 133.401H349.5C342.573 133.401 335.929 130.649 331.031 125.751C326.132 120.853 323.38 114.209 323.38 107.281V96.8311Z" fill="#5B1FF9" stroke="#263238" stroke-linecap="round" stroke-linejoin="round"/>
<path d="M386.83 96.8311H449.72V107.281C449.72 114.209 446.968 120.853 442.07 125.751C437.171 130.649 430.528 133.401 423.6 133.401H413C406.073 133.401 399.429 130.649 394.53 125.751C389.632 120.853 386.88 114.209 386.88 107.281V96.8311H386.83Z" fill="#E0E0E0" stroke="#263238" stroke-linecap="round" stroke-linejoin="round"/>
<path d="M449.72 0.641602H6.66016V104.321H449.72V0.641602Z" fill="white" stroke="#263238" stroke-linecap="round" stroke-linejoin="round"/>
<path d="M132.87 0.641602H69.8804V104.321H132.87V0.641602Z" fill="#5B1FF9" stroke="#263238" stroke-linecap="round" stroke-linejoin="round"/>
<path d="M259.55 0.641602H196.56V104.321H259.55V0.641602Z" fill="#5B1FF9" stroke="#263238" stroke-linecap="round" stroke-linejoin="round"/>
<path d="M387.36 0.641602H324.37V104.321H387.36V0.641602Z" fill="#5B1FF9" stroke="#263238" stroke-linecap="round" stroke-linejoin="round"/>
<path d="M399.6 17.7016C402.46 16.7016 405.26 15.6816 408 14.6416" stroke="#263238" stroke-linecap="round" stroke-linejoin="round"/>
<path d="M304.94 41.7612C336.65 35.7112 367.85 28.3512 394.37 19.4912" stroke="#263238" stroke-linecap="round" stroke-linejoin="round"/>
<path d="M136.82 64.2115C167.49 61.5615 233.26 55.0115 298.2 43.0215" stroke="#263238" stroke-linecap="round" stroke-linejoin="round"/>
<path d="M119 65.6417C119 65.6417 122.13 65.4217 127.8 64.9717" stroke="#263238" stroke-linecap="round" stroke-linejoin="round"/>
<path d="M191 48.8616C203.59 47.3116 216.19 45.2916 228 42.6416" stroke="#263238" stroke-linecap="round" stroke-linejoin="round"/>
<path d="M93 53.6416C123.633 54.1468 154.268 52.8111 184.74 49.6416" stroke="#263238" stroke-linecap="round" stroke-linejoin="round"/>
</svg>
