<svg width="352" height="395" viewBox="0 0 352 395" fill="none" xmlns="http://www.w3.org/2000/svg">
<path d="M332.963 142.472C334.444 122.733 329.853 102.119 323.702 83.7391C314.564 56.4464 296.822 28.4517 266.947 21.9924C249.72 18.2636 232.171 22.2564 217.417 31.5944C203.236 40.5718 192.133 52.1638 174.674 54.4113C157.016 56.6718 138.887 55.7702 121.132 55.7702C75.479 55.7702 38.4297 103.729 47.7162 153.658C57.0026 203.588 100.621 238.28 137.67 238.28C170.965 238.28 198.354 218.316 229.975 212.945C245.656 210.285 261.402 213.434 276.916 209.448C294.948 204.818 311.917 193.76 321.906 177.757C328.719 166.854 332.036 154.837 332.963 142.472Z" fill="#4A11E4"/>
<path opacity="0.7" d="M332.963 142.472C334.444 122.733 329.853 102.119 323.702 83.7391C314.564 56.4464 296.822 28.4517 266.947 21.9924C249.72 18.2636 232.171 22.2564 217.417 31.5944C203.236 40.5718 192.133 52.1638 174.674 54.4113C157.016 56.6718 138.887 55.7702 121.132 55.7702C75.479 55.7702 38.4297 103.729 47.7162 153.658C57.0026 203.588 100.621 238.28 137.67 238.28C170.965 238.28 198.354 218.316 229.975 212.945C245.656 210.285 261.402 213.434 276.916 209.448C294.948 204.818 311.917 193.76 321.906 177.757C328.719 166.854 332.036 154.837 332.963 142.472Z" fill="white"/>
<path d="M300.203 76.79H80.2192V256.994H300.203V76.79Z" fill="#808080" stroke="#263238" stroke-width="0.644" stroke-linecap="round" stroke-linejoin="round"/>
<path d="M300.203 76.79H80.2192V80.332H300.203V76.79Z" fill="#263238" stroke="#263238" stroke-width="0.644" stroke-linecap="round" stroke-linejoin="round"/>
<path d="M118.865 66.4541H97.1433V75.2189H118.865V66.4541Z" fill="#263238" stroke="#263238" stroke-width="0.644" stroke-linecap="round" stroke-linejoin="round"/>
<path d="M143.248 65.6875H140.201V75.2123H143.248V65.6875Z" fill="#263238" stroke="#263238" stroke-width="0.644" stroke-linecap="round" stroke-linejoin="round"/>
<path d="M302.882 71.2715H77.54V78.3426H302.882V71.2715Z" fill="white" stroke="#263238" stroke-width="0.644" stroke-linecap="round" stroke-linejoin="round"/>
<path d="M123.264 92.7617H93.6917V132.612H123.264V92.7617Z" fill="#263238" stroke="#263238" stroke-width="0.644" stroke-linecap="round" stroke-linejoin="round"/>
<path d="M112.38 94.8994H109.006V104.154H112.38V94.8994Z" fill="white" stroke="#263238" stroke-width="0.644" stroke-linecap="round" stroke-linejoin="round"/>
<path d="M107.943 94.8994H104.569V104.154H107.943V94.8994Z" fill="white" stroke="#263238" stroke-width="0.644" stroke-linecap="round" stroke-linejoin="round"/>
<path d="M121.39 94.8994H117.887V104.154H121.39V94.8994Z" fill="white" stroke="#263238" stroke-width="0.644" stroke-linecap="round" stroke-linejoin="round"/>
<path d="M103.506 94.8994H100.131V104.154H103.506V94.8994Z" fill="white" stroke="#263238" stroke-width="0.644" stroke-linecap="round" stroke-linejoin="round"/>
<path d="M116.824 94.8994H113.449V104.154H116.824V94.8994Z" fill="white" stroke="#263238" stroke-width="0.644" stroke-linecap="round" stroke-linejoin="round"/>
<path d="M121.39 106.64H110.159V130.481H121.39V106.64Z" fill="white" stroke="#263238" stroke-width="0.644" stroke-linecap="round" stroke-linejoin="round"/>
<path d="M99.0624 94.8994H95.5591V104.154H99.0624V94.8994Z" fill="white" stroke="#263238" stroke-width="0.644" stroke-linecap="round" stroke-linejoin="round"/>
<path d="M106.79 106.64H95.5591V130.481H106.79V106.64Z" fill="white" stroke="#263238" stroke-width="0.644" stroke-linecap="round" stroke-linejoin="round"/>
<path d="M98.4248 119.397L96.9436 120.589" stroke="#263238" stroke-width="0.644" stroke-linecap="round" stroke-linejoin="round"/>
<path d="M106.855 112.59L100.267 117.909" stroke="#263238" stroke-width="0.644" stroke-linecap="round" stroke-linejoin="round"/>
<path d="M112.535 119.397L111.06 120.589" stroke="#263238" stroke-width="0.644" stroke-linecap="round" stroke-linejoin="round"/>
<path d="M120.965 112.59L114.383 117.909" stroke="#263238" stroke-width="0.644" stroke-linecap="round" stroke-linejoin="round"/>
<path d="M203.023 92.7617H173.451V132.612H203.023V92.7617Z" fill="#263238" stroke="#263238" stroke-width="0.644" stroke-linecap="round" stroke-linejoin="round"/>
<path d="M192.14 94.8994H188.765V104.154H192.14V94.8994Z" fill="white" stroke="#263238" stroke-width="0.644" stroke-linecap="round" stroke-linejoin="round"/>
<path d="M187.703 94.8994H184.328V104.154H187.703V94.8994Z" fill="white" stroke="#263238" stroke-width="0.644" stroke-linecap="round" stroke-linejoin="round"/>
<path d="M201.149 94.8994H197.646V104.154H201.149V94.8994Z" fill="white" stroke="#263238" stroke-width="0.644" stroke-linecap="round" stroke-linejoin="round"/>
<path d="M183.265 94.8994H179.891V104.154H183.265V94.8994Z" fill="white" stroke="#263238" stroke-width="0.644" stroke-linecap="round" stroke-linejoin="round"/>
<path d="M196.577 94.8994H193.203V104.154H196.577V94.8994Z" fill="white" stroke="#263238" stroke-width="0.644" stroke-linecap="round" stroke-linejoin="round"/>
<path d="M201.15 106.64H189.918V130.481H201.15V106.64Z" fill="white" stroke="#263238" stroke-width="0.644" stroke-linecap="round" stroke-linejoin="round"/>
<path d="M178.822 94.8994H175.318V104.154H178.822V94.8994Z" fill="white" stroke="#263238" stroke-width="0.644" stroke-linecap="round" stroke-linejoin="round"/>
<path d="M186.55 106.64H175.318V130.481H186.55V106.64Z" fill="white" stroke="#263238" stroke-width="0.644" stroke-linecap="round" stroke-linejoin="round"/>
<path d="M177.869 119.397L176.387 120.589" stroke="#263238" stroke-width="0.644" stroke-linecap="round" stroke-linejoin="round"/>
<path d="M186.292 112.59L179.71 117.909" stroke="#263238" stroke-width="0.644" stroke-linecap="round" stroke-linejoin="round"/>
<path d="M192.339 119.397L190.858 120.589" stroke="#263238" stroke-width="0.644" stroke-linecap="round" stroke-linejoin="round"/>
<path d="M200.769 112.59L194.181 117.909" stroke="#263238" stroke-width="0.644" stroke-linecap="round" stroke-linejoin="round"/>
<path d="M283.26 92.7617H253.687V132.612H283.26V92.7617Z" fill="#263238" stroke="#263238" stroke-width="0.644" stroke-linecap="round" stroke-linejoin="round"/>
<path d="M272.382 94.8994H269.008V104.154H272.382V94.8994Z" fill="white" stroke="#263238" stroke-width="0.644" stroke-linecap="round" stroke-linejoin="round"/>
<path d="M267.945 94.8994H264.571V104.154H267.945V94.8994Z" fill="white" stroke="#263238" stroke-width="0.644" stroke-linecap="round" stroke-linejoin="round"/>
<path d="M281.385 94.8994H277.882V104.154H281.385V94.8994Z" fill="white" stroke="#263238" stroke-width="0.644" stroke-linecap="round" stroke-linejoin="round"/>
<path d="M263.508 94.8994H260.133V104.154H263.508V94.8994Z" fill="white" stroke="#263238" stroke-width="0.644" stroke-linecap="round" stroke-linejoin="round"/>
<path d="M276.819 94.8994H273.445V104.154H276.819V94.8994Z" fill="white" stroke="#263238" stroke-width="0.644" stroke-linecap="round" stroke-linejoin="round"/>
<path d="M281.392 106.64H270.161V130.481H281.392V106.64Z" fill="white" stroke="#263238" stroke-width="0.644" stroke-linecap="round" stroke-linejoin="round"/>
<path d="M259.064 94.8994H255.561V104.154H259.064V94.8994Z" fill="white" stroke="#263238" stroke-width="0.644" stroke-linecap="round" stroke-linejoin="round"/>
<path d="M266.792 106.64H255.561V130.481H266.792V106.64Z" fill="white" stroke="#263238" stroke-width="0.644" stroke-linecap="round" stroke-linejoin="round"/>
<path d="M258.858 119.397L257.383 120.589" stroke="#263238" stroke-width="0.644" stroke-linecap="round" stroke-linejoin="round"/>
<path d="M267.288 112.59L260.706 117.909" stroke="#263238" stroke-width="0.644" stroke-linecap="round" stroke-linejoin="round"/>
<path d="M273.335 119.397L271.854 120.589" stroke="#263238" stroke-width="0.644" stroke-linecap="round" stroke-linejoin="round"/>
<path d="M281.759 112.59L275.177 117.909" stroke="#263238" stroke-width="0.644" stroke-linecap="round" stroke-linejoin="round"/>
<path d="M300.268 141.036H80.29V292.82H300.268V141.036Z" fill="#D6D6D6" stroke="#263238" stroke-width="0.644" stroke-linecap="round" stroke-linejoin="round"/>
<path d="M211.775 207.194H164.796V292.821H211.775V207.194Z" fill="#4A11E4" stroke="#263238" stroke-width="0.644" stroke-linecap="round" stroke-linejoin="round"/>
<path d="M168.003 283.508H207.982V278.034H168.003H207.982V272.56H168.003H207.982V267.086H168.003H207.982V261.612H168.003H207.982V260.71H167.887V288.067H207.982V283.508H168.003Z" fill="#D6D6D6" stroke="#263238" stroke-width="0.497011" stroke-linecap="round" stroke-linejoin="round"/>
<path d="M168.003 250.664H207.982V245.19H168.003H207.982V239.716H168.003H207.982V234.242H168.003H207.982V228.768H168.003H207.982V223.294H168.003H207.982V217.82H168.003H207.982V212.346H168.003H207.982V211.354H167.887V255.951H207.982V250.664H168.003Z" fill="#D6D6D6" stroke="#263238" stroke-width="0.497011" stroke-linecap="round" stroke-linejoin="round"/>
<path d="M210.436 245.467H208.968V261.11H210.436V245.467Z" fill="#263238" stroke="#263238" stroke-width="0.644" stroke-linecap="round" stroke-linejoin="round"/>
<path d="M182.081 238.461L187.722 231.293L193.801 238.673" stroke="#263238" stroke-width="0.644" stroke-linecap="round" stroke-linejoin="round"/>
<path d="M196.622 237.371H178.391V246.922H196.622V237.371Z" fill="white" stroke="#263238" stroke-width="0.644" stroke-linecap="round" stroke-linejoin="round"/>
<path d="M295.875 207.271H224.81V292.819H295.875V207.271Z" fill="#D6D6D6" stroke="#263238" stroke-width="0.644" stroke-linecap="round" stroke-linejoin="round"/>
<path d="M225.023 289.078H295.908" stroke="#263238" stroke-width="0.644" stroke-linecap="round" stroke-linejoin="round"/>
<path d="M225.023 283.604H295.908" stroke="#263238" stroke-width="0.644" stroke-linecap="round" stroke-linejoin="round"/>
<path d="M225.023 278.13H295.908" stroke="#263238" stroke-width="0.644" stroke-linecap="round" stroke-linejoin="round"/>
<path d="M225.023 272.656H295.908" stroke="#263238" stroke-width="0.644" stroke-linecap="round" stroke-linejoin="round"/>
<path d="M225.023 267.182H295.908" stroke="#263238" stroke-width="0.644" stroke-linecap="round" stroke-linejoin="round"/>
<path d="M225.023 261.708H295.908" stroke="#263238" stroke-width="0.644" stroke-linecap="round" stroke-linejoin="round"/>
<path d="M225.023 256.234H295.908" stroke="#263238" stroke-width="0.644" stroke-linecap="round" stroke-linejoin="round"/>
<path d="M225.023 250.761H295.908" stroke="#263238" stroke-width="0.644" stroke-linecap="round" stroke-linejoin="round"/>
<path d="M225.023 245.286H295.908" stroke="#263238" stroke-width="0.644" stroke-linecap="round" stroke-linejoin="round"/>
<path d="M225.023 239.812H295.908" stroke="#263238" stroke-width="0.644" stroke-linecap="round" stroke-linejoin="round"/>
<path d="M225.023 234.339H295.908" stroke="#263238" stroke-width="0.644" stroke-linecap="round" stroke-linejoin="round"/>
<path d="M225.023 228.863H295.908" stroke="#263238" stroke-width="0.644" stroke-linecap="round" stroke-linejoin="round"/>
<path d="M225.023 223.391H295.908" stroke="#263238" stroke-width="0.644" stroke-linecap="round" stroke-linejoin="round"/>
<path d="M225.023 217.917H295.908" stroke="#263238" stroke-width="0.644" stroke-linecap="round" stroke-linejoin="round"/>
<path d="M225.023 212.441H295.908" stroke="#263238" stroke-width="0.644" stroke-linecap="round" stroke-linejoin="round"/>
<path d="M152.856 207.271H85.5383V292.819H152.856V207.271Z" fill="#D6D6D6" stroke="#263238" stroke-width="0.644" stroke-linecap="round" stroke-linejoin="round"/>
<path d="M85.7383 289.078H152.882" stroke="#263238" stroke-width="0.644" stroke-linecap="round" stroke-linejoin="round"/>
<path d="M85.7383 283.604H152.882" stroke="#263238" stroke-width="0.644" stroke-linecap="round" stroke-linejoin="round"/>
<path d="M85.7383 278.13H152.882" stroke="#263238" stroke-width="0.644" stroke-linecap="round" stroke-linejoin="round"/>
<path d="M85.7383 272.656H152.882" stroke="#263238" stroke-width="0.644" stroke-linecap="round" stroke-linejoin="round"/>
<path d="M85.7383 267.182H152.882" stroke="#263238" stroke-width="0.644" stroke-linecap="round" stroke-linejoin="round"/>
<path d="M85.7383 261.708H152.882" stroke="#263238" stroke-width="0.644" stroke-linecap="round" stroke-linejoin="round"/>
<path d="M85.7383 255.667H152.882" stroke="#263238" stroke-width="0.644" stroke-linecap="round" stroke-linejoin="round"/>
<path d="M85.7383 249.626H152.882" stroke="#263238" stroke-width="0.644" stroke-linecap="round" stroke-linejoin="round"/>
<path d="M85.7383 243.586H152.882" stroke="#263238" stroke-width="0.644" stroke-linecap="round" stroke-linejoin="round"/>
<path d="M85.7383 237.545H152.882" stroke="#263238" stroke-width="0.644" stroke-linecap="round" stroke-linejoin="round"/>
<path d="M85.7383 231.504H152.882" stroke="#263238" stroke-width="0.644" stroke-linecap="round" stroke-linejoin="round"/>
<path d="M85.7383 223.391H152.882" stroke="#263238" stroke-width="0.644" stroke-linecap="round" stroke-linejoin="round"/>
<path d="M85.7383 217.917H152.882" stroke="#263238" stroke-width="0.644" stroke-linecap="round" stroke-linejoin="round"/>
<path d="M85.7383 212.441H152.882" stroke="#263238" stroke-width="0.644" stroke-linecap="round" stroke-linejoin="round"/>
<path opacity="0.3" d="M300.268 191.049H80.7666V220.138H300.268V191.049Z" fill="black"/>
<path d="M298.548 181.248H82.1638V210.338H298.548V181.248Z" fill="white" stroke="#263238" stroke-width="0.644" stroke-linecap="round" stroke-linejoin="round"/>
<path d="M103.68 181.248H93.7175V210.338H103.68V181.248Z" fill="#4A11E4" stroke="#263238" stroke-width="0.644" stroke-linecap="round" stroke-linejoin="round"/>
<path d="M124.797 181.248H114.834V210.338H124.797V181.248Z" fill="#4A11E4" stroke="#263238" stroke-width="0.644" stroke-linecap="round" stroke-linejoin="round"/>
<path d="M145.92 181.248H135.958V210.338H145.92V181.248Z" fill="#4A11E4" stroke="#263238" stroke-width="0.644" stroke-linecap="round" stroke-linejoin="round"/>
<path d="M166.006 181.248H156.043V210.338H166.006V181.248Z" fill="#4A11E4" stroke="#263238" stroke-width="0.644" stroke-linecap="round" stroke-linejoin="round"/>
<path d="M186.093 181.248H176.13V210.338H186.093V181.248Z" fill="#4A11E4" stroke="#263238" stroke-width="0.644" stroke-linecap="round" stroke-linejoin="round"/>
<path d="M206.186 181.248H196.223V210.338H206.186V181.248Z" fill="#4A11E4" stroke="#263238" stroke-width="0.644" stroke-linecap="round" stroke-linejoin="round"/>
<path d="M226.272 181.248H216.309V210.338H226.272V181.248Z" fill="#4A11E4" stroke="#263238" stroke-width="0.644" stroke-linecap="round" stroke-linejoin="round"/>
<path d="M246.358 181.248H236.396V210.338H246.358V181.248Z" fill="#4A11E4" stroke="#263238" stroke-width="0.644" stroke-linecap="round" stroke-linejoin="round"/>
<path d="M266.451 181.248H256.488V210.338H266.451V181.248Z" fill="#4A11E4" stroke="#263238" stroke-width="0.644" stroke-linecap="round" stroke-linejoin="round"/>
<path d="M286.537 181.248H276.574V210.338H286.537V181.248Z" fill="#4A11E4" stroke="#263238" stroke-width="0.644" stroke-linecap="round" stroke-linejoin="round"/>
<path d="M95.1986 141.036L91.4248 173.893L105.612 141.036H95.1986Z" fill="#4A11E4" stroke="#263238" stroke-width="0.644" stroke-linecap="round" stroke-linejoin="round"/>
<path d="M119.265 141.036L89.8472 180.99L134.612 141.036H119.265Z" fill="#4A11E4" stroke="#263238" stroke-width="0.644" stroke-linecap="round" stroke-linejoin="round"/>
<path d="M213.463 141.036L103.242 177.049L284.741 141.036H213.463Z" fill="#4A11E4" stroke="#263238" stroke-width="0.644" stroke-linecap="round" stroke-linejoin="round"/>
<path d="M146.957 141.036L98.1223 177.834L175.692 141.036H146.957Z" fill="#4A11E4" stroke="#263238" stroke-width="0.644" stroke-linecap="round" stroke-linejoin="round"/>
<path d="M283.768 228.94H237.02V262.106H283.768V228.94Z" fill="#4A11E4" stroke="#263238" stroke-width="0.576754" stroke-linecap="round" stroke-linejoin="round"/>
<path d="M276.266 189.844C276.266 189.844 296.423 191.841 306.643 204.334C306.643 204.334 317.437 189.857 336.821 190.166C341.562 184.452 344.581 177.509 345.528 170.145C346.475 162.781 345.31 155.3 342.169 148.572C339.028 141.845 334.04 136.149 327.786 132.147C321.532 128.145 314.27 126.002 306.846 125.968C299.422 125.934 292.14 128.01 285.85 131.955C279.56 135.9 274.521 141.55 271.318 148.248C268.116 154.947 266.882 162.417 267.762 169.789C268.641 177.161 271.597 184.132 276.285 189.889L276.266 189.844Z" fill="#4A11E4"/>
<path opacity="0.5" d="M276.266 189.844C276.266 189.844 296.423 191.841 306.643 204.334C306.643 204.334 317.437 189.857 336.821 190.166C341.562 184.452 344.581 177.509 345.528 170.145C346.475 162.781 345.31 155.3 342.169 148.572C339.028 141.845 334.04 136.149 327.786 132.147C321.532 128.145 314.27 126.002 306.846 125.968C299.422 125.934 292.14 128.01 285.85 131.955C279.56 135.9 274.521 141.55 271.318 148.248C268.116 154.947 266.882 162.417 267.762 169.789C268.641 177.161 271.597 184.132 276.285 189.889L276.266 189.844Z" fill="white"/>
<path d="M305.973 128.734L305.291 289.026H308.698L305.973 128.734Z" fill="#828282"/>
<path d="M306.991 200.529C306.991 200.529 313.798 188.293 326.047 184.538C326.047 184.538 313.115 187.597 306.656 198.146L306.991 200.529Z" fill="#828282"/>
<path d="M306.482 166.499C306.482 166.499 313.798 153.574 326.047 149.832C326.047 149.832 312.999 153.38 306.534 163.929L306.482 166.499Z" fill="#828282"/>
<path d="M306.682 183.61C306.682 183.61 313.798 170.923 326.047 167.182C326.047 167.182 313.115 170.247 306.656 180.796L306.682 183.61Z" fill="#828282"/>
<path d="M305.987 174.673C305.987 174.673 299.418 162.437 287.6 158.676C287.6 158.676 300.075 161.741 306.315 172.29L305.987 174.673Z" fill="#828282"/>
<path d="M305.987 191.68C305.987 191.68 299.418 179.444 287.6 175.689C287.6 175.689 300.075 178.755 306.315 189.297L305.987 191.68Z" fill="#828282"/>
<path d="M319.671 286.464H292.643V292.666H319.671V286.464Z" fill="white" stroke="#263238" stroke-width="0.644" stroke-linecap="round" stroke-linejoin="round"/>
<path d="M322.286 292.711H59.6565V297.528H322.286V292.711Z" fill="white" stroke="#263238" stroke-width="0.644" stroke-linecap="round" stroke-linejoin="round"/>
<path d="M46.1001 297.529H337.832" stroke="#263238" stroke-width="0.644" stroke-miterlimit="10"/>
<path d="M240.556 244.229V246.387H242.909V247.082H240.556V249.305H243.187V250H239.713V243.534H243.187V244.229H240.556ZM251.104 243.59V250H250.261V245.22L248.131 250H247.538L245.398 245.211V250H244.555V243.59H245.463L247.834 248.888L250.206 243.59H251.104ZM258.421 246.675C258.656 246.712 258.869 246.807 259.061 246.962C259.258 247.116 259.413 247.308 259.524 247.536C259.641 247.764 259.7 248.008 259.7 248.268C259.7 248.595 259.616 248.892 259.45 249.157C259.283 249.416 259.039 249.623 258.718 249.778C258.403 249.926 258.029 250 257.597 250H255.189V243.544H257.504C257.943 243.544 258.316 243.618 258.625 243.766C258.934 243.908 259.166 244.102 259.32 244.349C259.474 244.596 259.551 244.874 259.551 245.183C259.551 245.566 259.446 245.884 259.237 246.137C259.033 246.384 258.761 246.563 258.421 246.675ZM256.031 246.332H257.449C257.844 246.332 258.15 246.239 258.366 246.054C258.582 245.869 258.69 245.612 258.69 245.285C258.69 244.958 258.582 244.701 258.366 244.516C258.15 244.331 257.838 244.238 257.43 244.238H256.031V246.332ZM257.523 249.305C257.943 249.305 258.27 249.206 258.505 249.009C258.739 248.811 258.857 248.536 258.857 248.184C258.857 247.826 258.733 247.545 258.486 247.341C258.239 247.132 257.909 247.027 257.495 247.027H256.031V249.305H257.523ZM264.362 250L262.824 247.36H261.805V250H260.962V243.544H263.046C263.534 243.544 263.945 243.627 264.278 243.794C264.618 243.96 264.871 244.186 265.038 244.47C265.205 244.754 265.288 245.078 265.288 245.443C265.288 245.887 265.158 246.279 264.899 246.619C264.646 246.959 264.263 247.184 263.75 247.295L265.371 250H264.362ZM261.805 246.684H263.046C263.503 246.684 263.846 246.573 264.075 246.35C264.303 246.122 264.417 245.819 264.417 245.443C264.417 245.06 264.303 244.763 264.075 244.553C263.852 244.343 263.509 244.238 263.046 244.238H261.805V246.684ZM267.533 244.229V246.387H269.886V247.082H267.533V249.305H270.164V250H266.69V243.534H270.164V244.229H267.533ZM276.868 243.544L274.432 250H273.459L271.023 243.544H271.921L273.95 249.111L275.979 243.544H276.868ZM278.728 244.229V246.387H281.081V247.082H278.728V249.305H281.358V250H277.885V243.534H281.358V244.229H278.728Z" fill="white"/>
<path d="M60.2489 229.855C56.2327 229.855 52.3811 228.26 49.5412 225.42C46.7014 222.58 45.106 218.728 45.106 214.712C45.106 210.696 46.7014 206.844 49.5412 204.005C52.3811 201.165 56.2327 199.569 60.2489 199.569C64.265 199.569 68.1167 201.165 70.9565 204.005C73.7964 206.844 75.3918 210.696 75.3918 214.712C75.3918 218.728 73.7964 222.58 70.9565 225.42C68.1167 228.26 64.265 229.855 60.2489 229.855Z" fill="#EBEBEB"/>
<path d="M80.5411 184.559L82.6141 188.347L86.4065 190.424L82.6141 192.497L80.5411 196.285L78.4681 192.497L74.6758 190.424L78.4681 188.347L80.5411 184.559Z" fill="#2268EF"/>
<path d="M167.018 287.271L168.574 290.117L171.416 291.668L168.574 293.224L167.018 296.071L165.463 293.224L162.621 291.668L165.463 290.117L167.018 287.271Z" fill="#2268EF"/>
<path d="M27.3818 303.505L28.9376 306.351L31.7797 307.903L28.9376 309.459L27.3818 312.305L25.8259 309.459L22.9839 307.903L25.8259 306.351L27.3818 303.505Z" fill="#2268EF"/>
<path d="M171.416 273.232L172.119 274.514L173.401 275.217L172.119 275.92L171.416 277.202L170.718 275.92L169.432 275.217L170.718 274.514L171.416 273.232Z" fill="#2268EF"/>
<path d="M65.7297 185.981L66.4325 187.268L67.7143 187.966L66.4325 188.669L65.7297 189.951L65.0313 188.669L63.7451 187.966L65.0313 187.268L65.7297 185.981Z" fill="#2268EF"/>
<path d="M29.2337 242.496C30.0492 242.122 30.7375 241.518 31.2135 240.758C31.6895 239.997 31.9324 239.114 31.9122 238.217C31.9122 235.685 29.9453 233.651 27.5718 233.669C25.1982 233.687 23.2932 235.76 23.3153 238.292C23.3089 239.197 23.5709 240.083 24.0681 240.838C24.5654 241.593 25.2756 242.184 26.1087 242.536C19.5053 243.618 19.8942 250.805 19.8942 250.805L35.5366 250.673C35.5366 250.673 35.8062 243.402 29.2337 242.496Z" fill="#2268EF"/>
<path d="M140.03 187.462C139.92 186.895 139.611 186.386 139.16 186.025C138.709 185.664 138.145 185.475 137.567 185.492C136.99 185.509 136.438 185.731 136.009 186.118C135.58 186.504 135.302 187.031 135.225 187.603C135.145 187.032 134.864 186.507 134.433 186.123C134.002 185.739 133.449 185.521 132.872 185.507C132.295 185.494 131.732 185.685 131.283 186.048C130.834 186.411 130.528 186.921 130.421 187.488C130.305 188.326 130.517 189.177 131.013 189.862C131.504 190.538 132.08 191.147 132.728 191.674C133.612 192.457 134.412 193.186 135.287 193.964C136.171 193.177 136.892 192.439 137.758 191.652C138.403 191.119 138.975 190.504 139.46 189.822C139.943 189.137 140.147 188.293 140.03 187.462Z" fill="#2268EF"/>
<path fill-rule="evenodd" clip-rule="evenodd" d="M60.775 230.575C69.4409 230.575 76.466 223.55 76.466 214.884C76.466 206.218 69.4409 199.193 60.775 199.193C52.1091 199.193 45.084 206.218 45.084 214.884C45.084 223.55 52.1091 230.575 60.775 230.575ZM50.7971 212.168C51.0128 211.447 51.2494 210.777 51.5069 210.157C52.2497 208.37 53.3064 206.936 54.6772 205.857C56.0341 204.744 57.5958 204.079 59.3625 203.863C61.1292 203.647 62.942 203.925 64.8009 204.698C66.7075 205.49 68.2264 206.61 69.3574 208.059C70.4744 209.473 71.1212 211.111 71.2977 212.973C71.4742 214.835 71.1415 216.779 70.2998 218.805C69.458 220.831 68.2981 222.445 66.8203 223.647C65.3523 224.826 63.7181 225.53 61.9177 225.76C60.0934 225.98 58.2518 225.704 56.3929 224.932C54.0573 223.961 52.3456 222.565 51.258 220.744C50.1802 218.899 49.7703 216.926 50.0284 214.825L53.5318 216.281C53.4575 217.536 53.7584 218.695 54.4344 219.758C55.0965 220.788 56.1306 221.595 57.5367 222.179C59.2527 222.892 60.9412 222.965 62.6024 222.398C64.2496 221.797 65.5338 220.555 66.4552 218.675L50.7971 212.168ZM57.2939 208.034C56.3793 208.688 55.6645 209.635 55.1495 210.874L67.5187 216.014C68.1243 214.086 68.073 212.36 67.3648 210.836C66.6328 209.302 65.4445 208.193 63.8001 207.51C62.6561 207.035 61.5204 206.842 60.3928 206.933C59.2513 206.989 58.2184 207.357 57.2939 208.034Z" fill="url(#paint0_linear_731_15034)"/>
<path d="M207.948 381.439C207.948 381.505 164.115 381.554 110.058 381.554C56.0014 381.554 12.155 381.505 12.155 381.439C12.155 381.373 55.9793 381.324 110.058 381.324C164.137 381.324 207.948 381.377 207.948 381.439Z" fill="#263238"/>
<path d="M168.086 251.317C164.766 252.93 160.942 253.159 157.454 251.954C153.966 250.748 151.099 248.206 149.484 244.888C147.871 241.568 147.642 237.744 148.847 234.256C150.053 230.768 152.594 227.901 155.913 226.286C157.557 225.487 159.341 225.019 161.166 224.91C162.99 224.8 164.818 225.051 166.545 225.648C168.273 226.245 169.865 227.176 171.233 228.389C172.6 229.602 173.715 231.072 174.514 232.715C175.314 234.359 175.782 236.144 175.891 237.968C176.001 239.792 175.75 241.62 175.153 243.347C174.556 245.075 173.624 246.668 172.412 248.035C171.199 249.402 169.729 250.517 168.086 251.317Z" fill="#0078F6"/>
<path d="M191.88 282.087C189.846 281.312 187.985 280.143 186.403 278.647C184.821 277.151 183.55 275.358 182.661 273.371C181.773 271.383 181.285 269.24 181.226 267.064C181.167 264.887 181.537 262.721 182.316 260.688C183.091 258.654 184.26 256.793 185.755 255.211C187.25 253.629 189.042 252.357 191.029 251.468C193.016 250.579 195.159 250.091 197.335 250.031C199.51 249.971 201.677 250.34 203.71 251.118C205.744 251.894 207.605 253.063 209.187 254.558C210.769 256.054 212.04 257.847 212.929 259.835C213.817 261.822 214.305 263.965 214.364 266.142C214.423 268.318 214.053 270.484 213.274 272.517C212.499 274.551 211.33 276.413 209.835 277.995C208.34 279.577 206.548 280.848 204.561 281.737C202.574 282.626 200.431 283.114 198.255 283.175C196.08 283.235 193.913 282.865 191.88 282.087Z" fill="#2CD03E"/>
<path fill-rule="evenodd" clip-rule="evenodd" d="M206.454 269.417C207.193 267.243 207.066 264.868 206.099 262.785C205.131 260.702 203.398 259.072 201.26 258.234C199.122 257.397 196.743 257.415 194.619 258.286C192.494 259.157 190.786 260.814 189.852 262.911C189.798 263.029 189.751 263.154 189.704 263.272C189.125 264.779 188.973 266.416 189.266 268.004L186.066 271.866L191.247 272.162C192.246 273.342 193.534 274.244 194.986 274.777C196.438 275.31 198.003 275.456 199.529 275.202C201.054 274.948 202.487 274.302 203.688 273.327C204.888 272.353 205.815 271.083 206.377 269.642C206.407 269.569 206.433 269.494 206.454 269.417ZM195.382 273.398C194.011 272.877 192.823 271.964 191.969 270.772L188.947 270.6L190.81 268.353C190.392 266.838 190.469 265.23 191.029 263.763C191.117 263.538 191.218 263.313 191.324 263.1C192.167 261.431 193.602 260.137 195.349 259.47C197.096 258.804 199.029 258.813 200.769 259.497C202.509 260.181 203.932 261.489 204.758 263.167C205.584 264.844 205.755 266.769 205.236 268.566C205.183 268.755 205.123 268.938 205.052 269.122C204.336 270.97 202.915 272.459 201.102 273.261C199.289 274.062 197.231 274.112 195.382 273.398Z" fill="white"/>
<path fill-rule="evenodd" clip-rule="evenodd" d="M201.226 269.572C201.054 269.394 200.244 268.519 200.078 268.389C199.913 268.259 199.794 268.164 199.581 268.318C199.368 268.472 198.795 268.773 198.629 268.862C198.463 268.951 198.333 268.921 198.168 268.744C197.656 268.275 197.229 267.721 196.908 267.105C196.621 266.527 196.421 265.909 196.316 265.272C196.281 265.023 196.423 264.952 196.565 264.893C196.707 264.834 196.861 264.734 197.008 264.657L197.121 264.586C197.198 264.526 197.271 264.461 197.34 264.39C197.39 264.346 197.428 264.29 197.45 264.227C197.471 264.163 197.476 264.095 197.464 264.03C197.464 263.911 197.422 262.752 197.405 262.285C197.387 261.818 197.192 261.818 197.073 261.77C196.955 261.723 196.825 261.652 196.689 261.605C196.584 261.567 196.473 261.551 196.362 261.558C196.251 261.565 196.143 261.595 196.044 261.646C195.732 261.777 195.449 261.971 195.215 262.217C194.981 262.462 194.8 262.753 194.684 263.071C194.598 263.306 194.544 263.55 194.524 263.799C194.49 264.368 194.556 264.938 194.719 265.485C194.773 265.656 195.275 268.271 197.038 269.879C198.801 271.488 198.913 271.216 199.303 271.323C199.613 271.383 199.932 271.375 200.239 271.3C200.545 271.224 200.832 271.082 201.078 270.885C201.329 270.635 201.5 270.316 201.569 269.968C201.504 269.856 201.391 269.749 201.226 269.572Z" fill="white"/>
<path d="M47.736 354.163C43.5412 355.159 39.1224 354.449 35.4509 352.189C31.7793 349.929 29.1552 346.304 28.1554 342.11C27.6597 340.031 27.5786 337.874 27.9169 335.764C28.2551 333.653 29.0061 331.63 30.1267 329.81C31.2474 327.99 32.7158 326.408 34.448 325.156C36.1802 323.904 38.1423 323.005 40.222 322.512C42.3 322.016 44.4551 321.935 46.5645 322.273C48.6738 322.611 50.6959 323.361 52.5154 324.48C54.3349 325.599 55.9161 327.066 57.1687 328.796C58.4213 330.527 59.3208 332.487 59.8158 334.565C60.3113 336.645 60.3918 338.802 60.0527 340.914C59.7136 343.025 58.9616 345.048 57.8396 346.869C56.7176 348.689 55.2477 350.27 53.514 351.522C51.7803 352.774 49.8169 353.671 47.736 354.163Z" fill="url(#paint1_linear_731_15034)"/>
<path d="M42.2863 331.228C44.6023 330.676 44.8808 330.618 45.8223 330.441C46.3732 330.318 46.9413 330.289 47.5019 330.357C47.9122 330.407 48.3063 330.547 48.6555 330.768C49.0079 330.982 49.3095 331.27 49.5395 331.613C49.8523 332.083 50.0825 332.603 50.2202 333.151C50.4809 334.057 50.5561 334.331 51.1042 336.647C51.6522 338.963 51.7097 339.241 51.8865 340.183C52.0126 340.734 52.041 341.302 51.9705 341.863C51.9253 342.274 51.7846 342.669 51.5594 343.016C51.3484 343.369 51.0615 343.671 50.7196 343.9C50.2477 344.213 49.7261 344.443 49.177 344.581C48.293 344.842 48.0013 344.917 45.6852 345.465C43.3692 346.013 43.0907 346.075 42.1492 346.252C41.5971 346.377 41.0272 346.406 40.4652 346.336C40.0546 346.287 39.6602 346.147 39.3116 345.925C38.9627 345.704 38.6693 345.406 38.4541 345.054C38.1385 344.585 37.9067 344.064 37.769 343.516C37.5127 342.61 37.4375 342.34 36.885 340.024C36.3325 337.708 36.2751 337.429 36.0983 336.488C35.9769 335.935 35.9485 335.366 36.0143 334.804C36.0686 334.395 36.2085 334.002 36.4248 333.651C36.6411 333.3 36.9289 332.999 37.2696 332.766C37.7393 332.451 38.2596 332.22 38.8077 332.081C39.6917 331.825 39.9879 331.75 42.3039 331.197M41.9327 329.632C39.5768 330.194 39.2807 330.273 38.3657 330.539C37.6498 330.716 36.9696 331.015 36.3546 331.423C35.8329 331.783 35.3917 332.249 35.0592 332.789C34.7267 333.329 34.5101 333.932 34.4231 334.561C34.3302 335.298 34.3631 336.045 34.5203 336.771C34.7015 337.703 34.759 338.004 35.3203 340.36C35.8817 342.716 35.9612 343.012 36.2043 343.922C36.3812 344.638 36.6802 345.319 37.0883 345.933C37.448 346.475 37.9236 346.929 38.4806 347.264C39.0167 347.601 39.6202 347.817 40.2486 347.896C40.9855 347.989 41.7328 347.956 42.4586 347.799C43.3913 347.622 43.6918 347.56 46.0477 346.999C48.4035 346.437 48.6997 346.358 49.6102 346.115C50.3251 345.934 51.0048 345.635 51.6213 345.231C52.1485 344.875 52.5919 344.409 52.9208 343.865C53.2563 343.327 53.4733 342.725 53.5573 342.097C53.6487 341.36 53.6144 340.612 53.4556 339.887C53.2788 338.95 53.2169 338.654 52.6556 336.298C52.0942 333.942 52.0147 333.646 51.7716 332.731C51.59 332.016 51.2913 331.337 50.8876 330.72C50.5319 330.194 50.0658 329.752 49.5218 329.425C48.9866 329.085 48.3828 328.867 47.7538 328.788C47.017 328.695 46.2696 328.728 45.5438 328.885C44.6068 329.067 44.3106 329.124 41.9548 329.685" fill="white"/>
<path d="M42.9181 333.885C42.0372 334.094 41.2383 334.561 40.6224 335.225C40.0065 335.889 39.6013 336.72 39.4581 337.615C39.3148 338.509 39.4399 339.425 39.8175 340.248C40.1951 341.072 40.8084 341.764 41.5796 342.239C42.3509 342.713 43.2455 342.949 44.1505 342.915C45.0555 342.881 45.9301 342.58 46.6638 342.049C47.3975 341.518 47.9573 340.781 48.2724 339.932C48.5876 339.084 48.6439 338.16 48.4343 337.279C48.1521 336.098 47.4127 335.077 46.3785 334.441C45.3442 333.804 44.0997 333.604 42.9181 333.885ZM44.6861 341.235C44.1138 341.37 43.5143 341.333 42.9632 341.127C42.4122 340.922 41.9345 340.558 41.5903 340.081C41.2462 339.604 41.0512 339.036 41.0298 338.448C41.0085 337.86 41.1618 337.279 41.4704 336.779C41.779 336.278 42.2291 335.88 42.7637 335.636C43.2984 335.391 43.8936 335.31 44.4743 335.403C45.0549 335.496 45.5949 335.76 46.0259 336.16C46.457 336.56 46.7598 337.078 46.8961 337.65C46.9868 338.031 47.0016 338.426 46.9395 338.812C46.8775 339.198 46.7399 339.568 46.5346 339.901C46.3293 340.234 46.0604 340.523 45.7432 340.752C45.426 340.981 45.0668 341.145 44.6861 341.235Z" fill="white"/>
<path d="M48.5494 332.36C48.5977 332.566 48.584 332.781 48.51 332.979C48.436 333.177 48.305 333.349 48.1336 333.472C47.9621 333.596 47.7579 333.666 47.5467 333.674C47.3355 333.681 47.1267 333.626 46.9468 333.515C46.7669 333.404 46.6239 333.243 46.5358 333.051C46.4477 332.858 46.4185 332.645 46.4519 332.436C46.4853 332.227 46.5797 332.033 46.7233 331.878C46.8669 331.723 47.0533 331.614 47.2588 331.565C47.3958 331.531 47.5381 331.525 47.6774 331.547C47.8167 331.569 47.9503 331.619 48.0704 331.693C48.1904 331.767 48.2946 331.864 48.3769 331.978C48.4591 332.093 48.5177 332.223 48.5494 332.36Z" fill="white"/>
<path d="M160.932 246.467H163.902V239.055H165.97L166.197 236.568H163.902V235.147C163.902 234.564 164.023 234.33 164.613 234.33H166.226V231.743H164.165C161.955 231.743 160.96 232.717 160.96 234.586V236.575H159.376V239.055H160.918L160.932 246.467Z" fill="white"/>
<path d="M145.095 381.762L84.1479 381.74C80.6312 381.74 77.2584 380.343 74.7717 377.857C72.285 375.37 70.8879 371.997 70.8879 368.48L70.9145 215.69C70.9145 213.946 71.2583 212.22 71.9263 210.609C72.5944 208.999 73.5735 207.536 74.8076 206.304C76.0417 205.072 77.5066 204.096 79.1184 203.431C80.7303 202.767 82.4574 202.426 84.201 202.43L145.144 202.465C148.661 202.465 152.033 203.862 154.52 206.349C157.007 208.836 158.404 212.208 158.404 215.725L158.377 368.48C158.38 370.225 158.039 371.954 157.372 373.567C156.706 375.179 155.728 376.645 154.494 377.879C153.26 379.113 151.794 380.091 150.182 380.757C148.569 381.424 146.84 381.765 145.095 381.762Z" fill="#263238"/>
<path d="M145.078 207.822H133.259C132.483 207.841 131.746 208.165 131.209 208.725C130.671 209.285 130.377 210.034 130.39 210.81V212.954C130.399 213.339 130.332 213.722 130.192 214.081C130.053 214.44 129.844 214.769 129.577 215.047C129.311 215.325 128.992 215.548 128.639 215.703C128.286 215.858 127.907 215.942 127.521 215.95H104.489C104.103 215.942 103.723 215.857 103.371 215.702C103.018 215.546 102.699 215.323 102.433 215.044C102.166 214.765 101.957 214.437 101.818 214.077C101.679 213.718 101.611 213.335 101.62 212.949V210.792C101.636 210.014 101.343 209.262 100.805 208.7C100.268 208.137 99.5293 207.811 98.7516 207.791H94.588H84.2496C83.0288 207.788 81.8194 208.026 80.6907 208.491C79.562 208.956 78.5362 209.64 77.6719 210.502C76.8077 211.364 76.122 212.388 75.6541 213.516C75.1863 214.643 74.9455 215.852 74.9455 217.073L74.9146 366.208C74.9146 368.67 75.8925 371.031 77.6332 372.772C79.3739 374.512 81.7348 375.49 84.1966 375.49L145.025 375.526C146.244 375.526 147.451 375.286 148.577 374.819C149.703 374.353 150.726 373.669 151.588 372.807C152.45 371.945 153.134 370.922 153.6 369.796C154.067 368.67 154.307 367.463 154.307 366.244L154.338 217.104C154.338 214.646 153.363 212.288 151.627 210.548C149.891 208.808 147.536 207.828 145.078 207.822Z" fill="white"/>
<path d="M145.966 219.937C145.966 219.977 144.428 220.021 142.536 220.034C140.644 220.048 139.102 220.034 139.102 219.995C139.102 219.955 140.636 219.906 142.532 219.893C144.428 219.88 145.966 219.897 145.966 219.937Z" fill="#263238"/>
<path d="M145.979 221.692C145.979 221.732 144.446 221.776 142.549 221.794C140.653 221.811 139.115 221.794 139.115 221.749C139.115 221.705 140.653 221.665 142.549 221.648C144.446 221.63 145.979 221.652 145.979 221.692Z" fill="#263238"/>
<path d="M145.997 223.447C145.997 223.487 144.459 223.535 142.563 223.549C140.667 223.562 139.133 223.549 139.128 223.504C139.124 223.46 140.667 223.42 142.563 223.403C144.459 223.385 145.997 223.407 145.997 223.447Z" fill="#263238"/>
<path d="M81.3279 225.162H81.5091H82.0086L83.8562 225.118L83.8031 225.166C83.8031 224.76 83.8031 224.313 83.781 223.84C83.781 223.593 83.781 223.359 83.781 223.071C83.8102 222.923 83.8858 222.787 83.9971 222.685C84.1084 222.582 84.2495 222.518 84.3998 222.501C84.7004 222.501 84.9612 222.501 85.2838 222.501C85.4529 222.528 85.6066 222.615 85.7176 222.745C85.8286 222.876 85.8895 223.042 85.8894 223.213C85.8894 223.84 85.8894 224.49 85.9115 225.166L85.8275 225.082H88.1568L88.0684 225.171C88.0684 224.234 88.0684 223.261 88.0419 222.267C88.0419 222.019 88.0419 221.776 88.0419 221.529C88.0319 221.419 87.9973 221.312 87.9407 221.218C87.8841 221.123 87.8069 221.042 87.7148 220.981L86.6982 219.973L85.7126 219.005L85.2396 218.536C85.0761 218.377 84.9479 218.214 84.7578 218.174C84.6668 218.15 84.5715 218.147 84.4789 218.164C84.3864 218.182 84.299 218.22 84.223 218.276C84.0816 218.395 83.9313 218.563 83.781 218.718L82.9412 219.562C82.4152 220.105 81.8672 220.605 81.4694 221.078C81.3513 221.357 81.3115 221.662 81.3544 221.962C81.3544 222.249 81.3544 222.523 81.3544 222.78C81.3544 223.283 81.3544 223.725 81.3544 224.106C81.3544 224.486 81.3544 224.72 81.3544 224.95C81.3608 225.051 81.3608 225.153 81.3544 225.255C81.3493 225.162 81.3493 225.069 81.3544 224.976C81.3544 224.751 81.3544 224.472 81.3544 224.141C81.3544 223.809 81.3544 223.314 81.3235 222.815C81.3235 222.55 81.3235 222.271 81.3235 221.975C81.3235 221.825 81.3235 221.675 81.3235 221.533C81.3224 221.363 81.3667 221.195 81.4517 221.047C81.8937 220.521 82.3976 220.052 82.928 219.491L83.7589 218.638C83.9092 218.492 84.0285 218.346 84.2009 218.196C84.296 218.124 84.4062 218.074 84.5233 218.05C84.6405 218.026 84.7614 218.029 84.8772 218.059C85.0973 218.14 85.2913 218.279 85.4385 218.461L85.9159 218.93L86.9015 219.898L87.9226 220.897C88.0182 220.983 88.1055 221.077 88.1833 221.18C88.2598 221.297 88.3027 221.433 88.3071 221.573C88.3071 221.82 88.3071 222.068 88.3071 222.315C88.3071 223.31 88.3071 224.282 88.3292 225.219V225.308H88.2408H85.9115H85.7479V225.224C85.7479 224.548 85.7479 223.898 85.7479 223.27C85.7508 223.135 85.7051 223.004 85.6191 222.9C85.533 222.796 85.4124 222.727 85.2794 222.704C85.0098 222.704 84.6915 222.704 84.4308 222.704C84.3117 222.716 84.1993 222.765 84.1097 222.845C84.02 222.924 83.9576 223.03 83.9313 223.146C83.9313 223.381 83.9313 223.65 83.9313 223.889C83.9313 224.371 83.9313 224.822 83.9313 225.215V225.268H83.8783H81.9998H81.5091C81.4452 225.239 81.3845 225.204 81.3279 225.162Z" fill="#263238"/>
<path d="M121.55 341.699C121.338 341.732 121.124 341.747 120.909 341.743L119.168 341.778C117.7 341.801 115.667 341.814 113.422 341.814C111.176 341.814 109.143 341.814 107.676 341.778L105.934 341.743C105.72 341.747 105.505 341.732 105.293 341.699C105.505 341.663 105.72 341.648 105.934 341.655L107.676 341.615C109.143 341.615 111.176 341.584 113.422 341.584C115.667 341.584 117.696 341.584 119.168 341.615L120.909 341.655C121.124 341.648 121.338 341.663 121.55 341.699Z" fill="#455A64"/>
<path d="M147.084 345.695C147.084 345.761 137.727 345.81 126.187 345.81C114.646 345.81 105.289 345.761 105.289 345.695C105.289 345.629 114.646 345.58 126.187 345.58C137.727 345.58 147.084 345.633 147.084 345.695Z" fill="#455A64"/>
<path d="M134.023 349.474C134.023 349.541 127.592 349.589 119.658 349.589C111.724 349.589 105.289 349.541 105.289 349.474C105.289 349.408 111.72 349.359 119.658 349.359C127.597 349.359 134.023 349.395 134.023 349.474Z" fill="#455A64"/>
<path d="M147.911 356.781L146.611 355.477L145.374 356.71V352.979H147.906L147.911 356.781ZM146.611 355.313L146.651 355.353L147.796 356.502V353.099H145.493V356.436L146.611 355.313Z" fill="#263238"/>
<path d="M113.333 356.295L112.891 356.091C112.627 356.215 112.327 356.237 112.048 356.151C111.769 356.065 111.532 355.878 111.384 355.627C111.236 355.376 111.186 355.079 111.246 354.793C111.305 354.507 111.469 354.254 111.705 354.083C111.941 353.912 112.233 353.835 112.522 353.867C112.812 353.9 113.08 354.039 113.272 354.258C113.465 354.477 113.569 354.76 113.564 355.052C113.559 355.343 113.445 355.623 113.245 355.835L113.333 356.295ZM112.268 353.811C111.966 353.832 111.683 353.967 111.477 354.19C111.272 354.412 111.159 354.705 111.162 355.008C111.164 355.311 111.283 355.601 111.493 355.82C111.702 356.038 111.987 356.169 112.29 356.184C112.492 356.17 112.687 356.108 112.86 356.003L113.201 356.153L113.121 355.822C113.277 355.651 113.38 355.44 113.417 355.212C113.454 354.984 113.423 354.75 113.33 354.54C113.236 354.329 113.082 354.15 112.888 354.025C112.694 353.9 112.468 353.835 112.237 353.837L112.268 353.811Z" fill="#263238"/>
<path d="M116.277 356.104L115.755 354.822L114.77 353.938H117.157L116.277 356.104ZM114.991 354.014L115.831 354.783L116.273 355.874L117.024 353.996L114.991 354.014Z" fill="#263238"/>
<path d="M117.107 353.909L115.802 354.758L115.851 354.832L117.155 353.983L117.107 353.909Z" fill="#263238"/>
<path d="M109.572 354.185C109.537 354.015 109.442 353.862 109.305 353.755C109.169 353.647 108.998 353.591 108.824 353.597C108.65 353.603 108.484 353.67 108.355 353.786C108.225 353.903 108.141 354.062 108.118 354.234C108.094 354.059 108.008 353.899 107.877 353.782C107.745 353.665 107.576 353.599 107.4 353.596C107.224 353.593 107.052 353.653 106.916 353.765C106.78 353.877 106.689 354.034 106.659 354.207C106.625 354.462 106.69 354.72 106.84 354.928C106.99 355.132 107.165 355.317 107.362 355.476C107.631 355.71 107.874 355.918 108.14 356.166C108.405 355.927 108.626 355.701 108.891 355.463C109.085 355.3 109.258 355.113 109.404 354.906C109.552 354.697 109.612 354.438 109.572 354.185Z" fill="#4A11E4"/>
<path d="M150.572 360.082C150.572 360.082 150.572 359.936 150.572 359.666C150.572 359.397 150.572 358.986 150.572 358.455C150.572 357.39 150.572 355.803 150.55 353.788C150.55 349.726 150.528 343.816 150.51 336.404L150.585 336.479L79.9049 336.519L80.0198 336.404C80.0198 344.634 80.0198 352.612 80.0198 360.082L79.9093 359.971L130.487 360.02L145.25 360.051H149.228H150.254H150.607H150.267H149.255H145.316L130.576 360.082L79.9225 360.135H79.8076V360.082C79.8076 352.612 79.8076 344.634 79.8076 336.404V336.289H79.9314L150.612 336.329H150.687V336.404C150.687 343.834 150.656 349.761 150.647 353.836C150.647 355.861 150.647 357.421 150.647 358.486C150.647 359.008 150.647 359.406 150.647 359.68C150.647 359.954 150.572 360.082 150.572 360.082Z" fill="#263238"/>
<path d="M82.8316 340.363L82.7415 356.019L102.322 356.131L102.412 340.476L82.8316 340.363Z" fill="#EBEBEB"/>
<path d="M102.407 340.466H102.031H100.962H96.944L82.8 340.435L82.906 340.334C82.8839 344.997 82.8574 350.336 82.8309 355.985C82.853 356.016 82.6143 355.768 82.716 355.87H84.0641H85.3901H88.0421L93.1251 355.901L102.292 355.967L102.199 356.064C102.244 351.362 102.283 347.463 102.314 344.723C102.314 343.361 102.345 342.292 102.354 341.545C102.354 341.187 102.354 340.908 102.354 340.705C102.354 340.502 102.354 340.409 102.354 340.409C102.354 340.409 102.354 340.497 102.354 340.683C102.354 340.868 102.354 341.156 102.354 341.509C102.354 342.248 102.354 343.313 102.354 344.665C102.354 347.419 102.354 351.339 102.354 356.064V356.157H102.257L93.0897 356.122L88.0067 356.095H85.3547H84.0287H82.6806L82.5613 355.976C82.6011 350.323 82.632 344.984 82.6629 340.325V340.219H82.769L96.9572 340.347L100.935 340.4H101.983H102.248L102.407 340.466Z" fill="#263238"/>
<path d="M83.5022 341.352L83.4233 355.036L101.629 355.141L101.708 341.457L83.5022 341.352Z" fill="#E0E0E0"/>
<path d="M83.4143 355.025L89.8233 346.557L93.7306 351.9L96.4179 349.072L101.62 355.131L83.4143 355.025Z" fill="#F5F5F5"/>
<path d="M95.4411 345.549C95.4402 345.834 95.355 346.111 95.1962 346.347C95.0375 346.583 94.8123 346.766 94.5492 346.874C94.2861 346.982 93.997 347.009 93.7184 346.953C93.4398 346.896 93.1843 346.758 92.9842 346.556C92.7841 346.354 92.6484 346.097 92.5943 345.818C92.5403 345.539 92.5702 345.25 92.6804 344.988C92.7906 344.726 92.9761 344.503 93.2134 344.346C93.4507 344.189 93.7292 344.107 94.0134 344.108C94.2019 344.109 94.3884 344.147 94.5622 344.22C94.736 344.292 94.8937 344.399 95.0264 344.533C95.159 344.666 95.2639 344.825 95.3351 345C95.4062 345.174 95.4423 345.361 95.4411 345.549Z" fill="#F5F5F5"/>
<path d="M115.844 238.917C115.774 238.929 115.702 238.929 115.632 238.917L115.035 238.939L112.825 238.979C110.964 238.979 108.405 239.01 105.55 239.01C102.694 239.01 100.135 239.01 98.2742 238.979L96.0642 238.939L95.4631 238.917C95.3944 238.929 95.3241 238.929 95.2554 238.917C95.3233 238.9 95.3932 238.893 95.4631 238.895H96.0642L98.2742 238.86C100.135 238.837 102.694 238.824 105.55 238.824C108.405 238.824 110.964 238.824 112.825 238.86L115.035 238.895H115.632C115.703 238.893 115.774 238.901 115.844 238.917Z" fill="#263238"/>
<path d="M144.768 325.452L142.841 323.516L140.998 325.35V319.808H144.764L144.768 325.452ZM142.841 323.277L142.899 323.335L144.6 325.041V319.984H141.17V324.944L142.841 323.277Z" fill="#263238"/>
<path d="M95.7682 324.868L94.8842 324.465C94.3695 324.705 93.7839 324.744 93.2421 324.574C92.7002 324.405 92.241 324.04 91.9542 323.55C91.6674 323.06 91.5736 322.48 91.6913 321.925C91.8089 321.37 92.1294 320.878 92.5902 320.546C93.051 320.215 93.6189 320.067 94.1829 320.132C94.7469 320.196 95.2664 320.469 95.64 320.897C96.0135 321.324 96.2142 321.876 96.2028 322.443C96.1913 323.011 95.9686 323.554 95.5782 323.966L95.7682 324.868ZM93.6599 319.984C93.3534 319.986 93.0505 320.049 92.7683 320.169C92.4862 320.289 92.2304 320.463 92.0155 320.681C91.8007 320.9 91.6309 321.158 91.5161 321.443C91.4012 321.727 91.3434 322.031 91.346 322.337C91.3486 322.644 91.4116 322.947 91.5313 323.229C91.651 323.511 91.8251 323.767 92.0436 323.982C92.2622 324.196 92.5209 324.366 92.8051 324.481C93.0892 324.596 93.3932 324.654 93.6997 324.651C94.0973 324.627 94.4828 324.506 94.8224 324.297L94.8621 324.275L95.5251 324.572L95.3749 323.917L95.4058 323.886C95.7129 323.551 95.9152 323.134 95.9878 322.685C96.0605 322.237 96.0003 321.776 95.8147 321.362C95.6292 320.947 95.3263 320.595 94.9434 320.35C94.5605 320.105 94.1143 319.978 93.6599 319.984Z" fill="#263238"/>
<path d="M101.567 324.483L100.533 321.96L98.5969 320.192L103.3 320.156L101.567 324.483ZM99.0345 320.36L100.688 321.876L101.572 324.024L103.048 320.329L99.0345 320.36Z" fill="#263238"/>
<path d="M103.206 320.148L100.643 321.816L100.737 321.961L103.3 320.293L103.206 320.148Z" fill="#263238"/>
<path d="M88.369 320.744C88.3023 320.406 88.1174 320.102 87.8475 319.887C87.5775 319.673 87.2401 319.561 86.8953 319.572C86.5506 319.583 86.2211 319.717 85.9655 319.948C85.71 320.18 85.5452 320.495 85.5005 320.837C85.4498 320.496 85.2798 320.185 85.021 319.958C84.7621 319.731 84.4311 319.603 84.0868 319.597C83.7425 319.591 83.4073 319.708 83.1409 319.926C82.8745 320.144 82.6941 320.45 82.6319 320.788C82.5655 321.288 82.6936 321.794 82.9899 322.203C83.2865 322.605 83.6325 322.969 84.0198 323.286C84.5457 323.728 85.0275 324.17 85.5535 324.642C86.0662 324.174 86.5082 323.732 87.0254 323.259C87.4074 322.938 87.7474 322.569 88.0375 322.163C88.3252 321.75 88.4438 321.242 88.369 320.744Z" fill="#4A11E4"/>
<path d="M87.9403 242.108C89.7027 242.108 91.1315 240.679 91.1315 238.917C91.1315 237.154 89.7027 235.726 87.9403 235.726C86.1778 235.726 84.749 237.154 84.749 238.917C84.749 240.679 86.1778 242.108 87.9403 242.108Z" fill="#EBEBEB"/>
<path d="M143.566 307.153C143.566 307.219 130.191 307.272 113.696 307.272C97.2001 307.272 83.8208 307.219 83.8208 307.153C83.8208 307.087 97.1957 307.038 113.696 307.038C130.195 307.038 143.566 307.091 143.566 307.153Z" fill="#455A64"/>
<path d="M143.566 302.18C143.566 302.242 130.191 302.295 113.696 302.295C97.2001 302.295 83.8208 302.242 83.8208 302.18C83.8208 302.118 97.1957 302.065 113.696 302.065C130.195 302.065 143.566 302.118 143.566 302.18Z" fill="#455A64"/>
<path d="M116.339 312.196C116.339 312.258 109.059 312.311 100.082 312.311C91.105 312.311 83.8208 312.258 83.8208 312.196C83.8208 312.134 91.1005 312.081 100.082 312.081C109.063 312.081 116.339 312.134 116.339 312.196Z" fill="#455A64"/>
<path d="M112.33 366.399C112.326 366.65 112.247 366.894 112.104 367.101C111.961 367.307 111.76 367.467 111.527 367.56C111.293 367.652 111.038 367.674 110.792 367.622C110.546 367.569 110.322 367.445 110.146 367.266C109.971 367.086 109.852 366.858 109.806 366.611C109.76 366.364 109.787 366.109 109.886 365.878C109.984 365.647 110.149 365.45 110.359 365.312C110.569 365.174 110.815 365.102 111.066 365.104C111.234 365.105 111.4 365.14 111.555 365.206C111.709 365.272 111.849 365.368 111.967 365.489C112.084 365.609 112.177 365.751 112.239 365.907C112.301 366.064 112.332 366.23 112.33 366.399Z" fill="#263238"/>
<path d="M116.246 366.416C116.241 366.666 116.162 366.909 116.019 367.114C115.876 367.319 115.676 367.478 115.444 367.569C115.211 367.661 114.957 367.682 114.713 367.63C114.468 367.578 114.245 367.455 114.07 367.276C113.895 367.097 113.778 366.87 113.731 366.625C113.685 366.379 113.712 366.125 113.81 365.895C113.907 365.665 114.07 365.469 114.279 365.331C114.487 365.193 114.732 365.12 114.982 365.121C115.15 365.122 115.317 365.157 115.471 365.223C115.626 365.288 115.767 365.384 115.884 365.505C116.002 365.625 116.094 365.768 116.156 365.924C116.218 366.081 116.249 366.248 116.246 366.416Z" fill="#263238"/>
<path d="M120.193 366.434C120.188 366.684 120.109 366.926 119.966 367.132C119.823 367.337 119.623 367.495 119.391 367.587C119.158 367.679 118.904 367.7 118.66 367.648C118.415 367.595 118.192 367.472 118.017 367.293C117.842 367.114 117.725 366.888 117.678 366.642C117.632 366.397 117.659 366.143 117.757 365.913C117.854 365.683 118.017 365.486 118.226 365.349C118.434 365.211 118.679 365.138 118.929 365.139C119.097 365.14 119.263 365.175 119.418 365.241C119.572 365.307 119.712 365.403 119.83 365.524C119.947 365.644 120.04 365.786 120.102 365.943C120.165 366.099 120.195 366.266 120.193 366.434Z" fill="#263238"/>
<path d="M150.996 245.229H80.3069V288.456H150.996V245.229Z" fill="#E0E0E0"/>
<path d="M86.8352 288.47L107.088 261.357L119.649 278.313L128.158 269.243L144.852 288.452L86.8352 288.47Z" fill="#F5F5F5"/>
<path d="M124.971 258.029C124.972 258.933 124.705 259.817 124.203 260.569C123.701 261.321 122.988 261.908 122.153 262.254C121.318 262.601 120.399 262.692 119.512 262.516C118.625 262.34 117.81 261.905 117.171 261.266C116.531 260.627 116.095 259.813 115.919 258.926C115.742 258.04 115.832 257.121 116.178 256.285C116.524 255.45 117.11 254.736 117.861 254.233C118.613 253.731 119.497 253.463 120.401 253.463C121.612 253.463 122.774 253.944 123.631 254.8C124.488 255.656 124.97 256.817 124.971 258.029Z" fill="#F5F5F5"/>
<path d="M150.806 328.634C150.806 327.71 150.762 288.659 150.7 230.845L150.806 230.952H80.1258L80.2407 230.837C80.2407 267.408 80.2407 301.252 80.2407 328.625L80.1435 328.532L150.833 328.625L80.1435 328.722H80.0507V328.625C80.0507 301.252 80.0507 267.408 80.0286 230.837V230.722H80.1523H150.833H150.939V230.823C150.917 259.761 150.899 284.217 150.886 301.446C150.886 310.047 150.863 316.841 150.859 321.491C150.859 323.807 150.859 325.588 150.859 326.795C150.859 327.392 150.859 327.847 150.859 328.156C150.859 328.466 150.806 328.634 150.806 328.634Z" fill="#263238"/>
<path d="M117.572 340.766L119.137 335.511C119.411 334.371 119.773 333.027 120.259 331.493C120.701 330.114 121.824 328.664 122.849 327.621C124.445 325.999 125.205 325.99 126.275 325.128C126.372 325.067 126.483 324.974 126.575 324.925C126.778 324.815 126.955 324.665 127.097 324.483C128.021 323.484 127.132 321.933 125.254 322.083C123.844 322.194 121.537 322.596 117.788 326.463C117.74 326.525 117.691 326.574 117.647 326.631C115.68 329.19 113.833 321.889 113.497 319.17C113.431 318.749 113.272 318.348 113.031 317.996C112.79 317.645 112.473 317.352 112.103 317.14C111.733 316.928 111.321 316.801 110.895 316.77C110.47 316.739 110.043 316.804 109.647 316.96L100.515 321.23C99.6441 320.977 98.7153 321.008 97.8631 321.318C97.2241 321.543 96.6916 321.997 96.3696 322.593C96.0476 323.189 95.9592 323.883 96.1216 324.541L99.83 339.308L88.9524 375.508H112.4L117.572 340.766Z" fill="#FFBE9D"/>
<path d="M135.605 307.52L128.357 321.725L124.732 320.718L106.522 335.538C105.779 336.146 104.827 336.44 103.871 336.358C102.914 336.275 102.027 335.822 101.399 335.096L94.4597 327.038C94.4597 327.038 108.449 321.014 111.035 316.028C113.62 311.042 110.632 309.906 110.632 309.906L117.214 302.428L135.605 307.52Z" fill="#4A11E4"/>
<path d="M126.204 278.506C126.204 278.506 115.596 276.159 100.661 261.803C85.7258 247.447 78.7157 228.366 76.9079 228.472C75.1002 228.578 67.1 224.861 51.9217 257.874C36.7434 290.887 42.7237 298.538 45.7337 298.493C48.7437 298.449 69.2569 292.717 82.0661 294.171C94.8752 295.625 111.34 302.303 111.34 302.303L126.204 278.506Z" fill="#4A11E4"/>
<path d="M148.742 296.5L145.122 303.382L143.5 306.476C142.429 308.512 140.618 310.06 138.439 310.801C136.261 311.541 133.881 311.417 131.791 310.454L109.05 302.529L122.31 272.296L145.029 284.402C147.119 285.521 148.682 287.42 149.378 289.686C150.073 291.952 149.845 294.402 148.742 296.5Z" fill="#4A11E4"/>
<g opacity="0.4">
<path d="M148.742 296.501L145.122 303.383L143.5 306.477C142.429 308.513 140.618 310.061 138.439 310.802C136.261 311.542 133.881 311.418 131.791 310.455L109.05 302.53L122.31 272.297L145.029 284.403C147.119 285.522 148.682 287.421 149.378 289.687C150.073 291.953 149.845 294.402 148.742 296.501Z" fill="black"/>
</g>
<path d="M53.1327 258.475C45.0574 276.359 41.6938 292.297 45.6187 294.07C49.5437 295.842 59.281 282.785 67.3563 264.898C75.4316 247.01 78.7953 231.08 74.8703 229.303C70.9453 227.527 61.2081 240.592 53.1327 258.475Z" fill="#4A11E4"/>
<g opacity="0.5">
<path d="M53.1327 258.474C45.0574 276.358 41.6938 292.296 45.6187 294.069C49.5437 295.841 59.281 282.784 67.3563 264.897C75.4316 247.009 78.7953 231.079 74.8703 229.302C70.9453 227.526 61.2081 240.591 53.1327 258.474Z" fill="black"/>
</g>
<path d="M150.695 306.445L144.53 304.509L148.344 297.26L152.967 300.133L150.695 306.445Z" fill="#6E45DF"/>
<g opacity="0.6">
<path d="M148.344 297.261L144.53 304.51L145.798 304.907L148.897 297.601L148.344 297.261Z" fill="black"/>
</g>
<path d="M144.092 298.931C144.004 299.13 140.927 297.937 137.223 296.279C133.519 294.622 130.593 293.084 130.677 292.885C130.761 292.686 133.842 293.884 137.55 295.559C141.259 297.234 144.185 298.733 144.092 298.931Z" fill="#4A11E4"/>
<path d="M145.993 294.613C145.895 294.808 143.111 293.637 139.774 291.992C136.437 290.348 133.811 288.859 133.908 288.66C134.006 288.461 136.786 289.636 140.123 291.281C143.46 292.925 146.09 294.414 145.993 294.613Z" fill="#4A11E4"/>
<path d="M141.705 303.462C141.674 303.568 140.941 303.4 139.774 303.02C139.19 302.838 138.496 302.609 137.732 302.348C136.967 302.087 136.185 301.671 135.34 301.287C131.968 299.722 129.391 298.193 129.475 298.007C129.559 297.822 132.33 299.019 135.663 300.571C136.503 300.951 137.281 301.366 138.015 301.671C138.748 301.976 139.407 302.246 139.959 302.494C141.064 303.002 141.736 303.355 141.705 303.462Z" fill="#4A11E4"/>
<path d="M69.5972 254.502C69.5972 254.502 60.3771 248.782 55.3339 261.242C50.2906 273.702 59.9881 275.749 59.9881 275.749C64.1758 269.154 67.4108 262.001 69.5972 254.502Z" fill="#6E45DF"/>
<g opacity="0.5">
<path d="M79.4053 239.649C79.4627 239.649 79.3301 240.507 79.0473 242.032C78.7644 243.557 78.3401 245.762 77.7478 248.476L76.466 252.839C76.2332 253.62 75.993 254.428 75.7455 255.265L75.3698 256.534C75.2328 256.976 75.0516 257.378 74.8925 257.807L72.8106 263.181C72.6294 263.65 72.4438 264.119 72.2626 264.591C72.0813 265.064 71.8206 265.515 71.6128 265.984L70.2426 268.813L68.868 271.637C68.6337 272.079 68.426 272.574 68.1741 273.007C67.9221 273.44 67.6569 273.891 67.405 274.311L64.4657 279.275C64.227 279.664 64.0237 280.066 63.7585 280.437L62.9938 281.52L61.5264 283.589L58.8744 287.288C57.1064 289.423 55.6301 291.107 54.6135 292.278C54.1142 292.913 53.5627 293.504 52.9648 294.046C53.3804 293.356 53.8535 292.703 54.3792 292.093C55.3605 290.842 56.7439 289.092 58.4412 286.939L60.9827 283.213L62.406 281.14C62.6535 280.786 62.901 280.424 63.1529 280.057C63.4049 279.69 63.5949 279.288 63.838 278.895L66.742 273.935L67.4978 272.636C67.7586 272.194 67.9398 271.752 68.1829 271.275L69.5443 268.468C69.9863 267.518 70.4592 266.585 70.91 265.661C71.1222 265.219 71.3786 264.751 71.5554 264.282L72.1079 262.885L74.2206 257.581C74.3842 257.139 74.5698 256.746 74.7112 256.322C74.8527 255.897 74.972 255.482 75.1002 255.066L75.8516 252.666L77.2085 248.357L78.7423 241.992C78.8961 241.194 79.1179 240.41 79.4053 239.649Z" fill="black"/>
</g>
<g opacity="0.4">
<path d="M96.6609 326.049C97.5051 327.578 98.3626 329.143 99.6046 330.349C100.847 331.556 102.544 332.413 104.312 332.237C106.08 332.06 107.693 330.619 107.711 328.877C108.542 329.501 109.819 329.165 110.509 328.382C111.198 327.6 111.424 326.517 111.503 325.478C112.635 326.146 114.208 325.62 114.964 324.546C115.311 323.986 115.531 323.357 115.607 322.703C115.683 322.049 115.615 321.387 115.406 320.762C114.975 319.52 114.363 318.347 113.589 317.284C114.473 317.354 115.384 317.416 116.162 317.023C116.94 316.63 117.488 315.595 117.015 314.853C116.704 314.438 116.253 314.151 115.746 314.044C114.381 313.602 113.426 313.275 112.003 313.438C111.676 313.438 112.573 317.186 103.658 322.305C98.367 325.333 96.6609 326.049 96.6609 326.049Z" fill="black"/>
</g>
<path d="M116.737 331.44C116.737 331.48 116.14 331.365 115.176 331.391C113.924 331.421 112.693 331.717 111.563 332.259C110.434 332.801 109.433 333.576 108.626 334.534C108.003 335.268 107.742 335.803 107.685 335.781C107.721 335.643 107.779 335.511 107.857 335.392C108.046 335.055 108.26 334.733 108.498 334.428C109.292 333.42 110.308 332.607 111.465 332.052C112.623 331.497 113.893 331.215 115.176 331.228C115.562 331.23 115.946 331.266 116.326 331.334C116.468 331.345 116.607 331.381 116.737 331.44Z" fill="#EB996E"/>
<path d="M97.24 323.657C98.6765 325.036 99.6577 326.561 101.165 327.948C101.85 328.58 102.933 329.774 103.817 329.933C104.701 330.092 105.32 329.973 105.682 329.115C105.978 328.421 105.448 327.471 105.085 326.905C104.126 325.398 103.207 324.222 102.491 323.051C102.151 322.503 102.588 322.388 102.747 322.644C103.437 323.36 104.471 323.97 105.09 324.762C105.939 325.827 106.089 327.246 108.308 326.795C108.604 326.747 108.886 326.63 109.13 326.454C109.965 325.814 110.014 324.686 109.651 323.802C109.338 323.12 108.921 322.491 108.414 321.937C109.36 323.002 110.389 324.147 111.892 324.244C112.317 324.296 112.747 324.214 113.123 324.011C113.499 323.807 113.803 323.492 113.992 323.108C114.434 322.101 113.802 321.124 113.161 320.337C112.026 318.938 110.764 317.648 109.391 316.483C108.878 316.052 108.231 315.813 107.561 315.807C106.783 315.807 105.793 315.948 105.351 316.62C105.098 316.944 104.914 317.316 104.81 317.713C104.706 318.111 104.684 318.525 104.745 318.932C104.745 318.932 102.8 317.946 101.236 318.976C100.273 319.652 99.5803 320.648 99.282 321.787L97.24 323.657Z" fill="#FFBE9D"/>
<path d="M107.605 315.382C107.294 315.021 107.101 314.573 107.052 314.099C107.003 313.625 107.1 313.147 107.331 312.73C107.662 312.08 108.078 311.448 108.502 311.307C110.354 310.684 118.452 312.085 118.376 313.879C118.301 315.674 117.709 316.531 113.32 315.899C112.546 315.789 111.335 315.638 111.335 315.638L110.275 317.23L107.605 315.382Z" fill="#FFBE9D"/>
<path d="M109.055 322.905C107.992 321.152 106.442 319.747 104.595 318.86C104.896 318.909 105.186 319.011 105.452 319.161C106.783 319.804 107.9 320.817 108.67 322.078C108.848 322.327 108.979 322.608 109.055 322.905Z" fill="#EB996E"/>
<path d="M110.416 317.385C110.376 317.42 109.841 316.987 109.112 316.54C108.807 316.347 108.491 316.172 108.166 316.014C107.914 315.899 107.746 315.868 107.751 315.833C107.755 315.798 107.941 315.78 108.219 315.864C108.578 315.979 108.92 316.141 109.236 316.346C109.983 316.801 110.474 317.336 110.416 317.385Z" fill="#EB996E"/>
<path d="M111.777 315.714C111.251 315.775 110.717 315.715 110.217 315.537C109.852 315.425 109.512 315.242 109.218 314.998C108.997 314.808 108.904 314.653 108.927 314.631C109.352 314.906 109.807 315.131 110.283 315.303C110.79 315.406 111.289 315.544 111.777 315.714Z" fill="#EB996E"/>
<path d="M103.91 325.129C103.631 324.836 103.383 324.514 103.172 324.17C102.667 323.353 102.029 322.627 101.284 322.022C100.512 321.457 99.5559 321.204 98.6059 321.314C98.2162 321.384 97.8373 321.504 97.4788 321.672C97.4788 321.672 97.5583 321.58 97.7395 321.469C97.9976 321.312 98.2823 321.205 98.5793 321.151C99.0741 321.071 99.5799 321.09 100.067 321.208C100.554 321.326 101.013 321.539 101.417 321.836C102.186 322.454 102.828 323.215 103.309 324.077C103.538 324.41 103.739 324.762 103.91 325.129Z" fill="#EB996E"/>
<path d="M110.102 343.029C109.012 343.261 107.908 343.419 106.796 343.502C105.691 343.662 104.576 343.745 103.459 343.75C104.551 343.518 105.657 343.36 106.77 343.277C107.874 343.119 108.987 343.037 110.102 343.029Z" fill="#EB996E"/>
<path d="M179.731 196.029L180.23 196.944L181.141 197.444L180.23 197.943L179.731 198.854L179.231 197.943L178.321 197.444L179.231 196.944L179.731 196.029Z" fill="#4A11E4"/>
<path d="M190.166 218.646L190.666 219.561L191.576 220.061L190.666 220.56L190.166 221.471L189.667 220.56L188.752 220.061L189.667 219.561L190.166 218.646Z" fill="#4A11E4"/>
<path d="M22.9398 278.988L23.4392 279.903L24.3542 280.403L23.4392 280.898L22.9398 281.813L22.4403 280.898L21.5298 280.403L22.4403 279.903L22.9398 278.988Z" fill="#4A11E4"/>
<path d="M166.042 201.651L167.195 203.76L169.304 204.913L167.195 206.063L166.042 208.171L164.893 206.063L162.784 204.913L164.893 203.76L166.042 201.651Z" fill="#4A11E4"/>
<path d="M32.2924 264.654L33.4416 266.754L35.5455 267.903L33.4416 269.057L32.2924 271.156L31.1432 269.057L29.0393 267.903L31.1432 266.754L32.2924 264.654Z" fill="#4A11E4"/>
<path d="M191.987 295.108L193.136 297.212L195.236 298.362L193.136 299.511L191.987 301.615L190.838 299.511L188.734 298.362L190.838 297.212L191.987 295.108Z" fill="#4A11E4"/>
<path d="M198.809 310.357H158.587C157.649 310.357 156.749 310.73 156.086 311.393C155.423 312.056 155.051 312.956 155.051 313.893V319.913C155.052 320.573 155.238 321.218 155.587 321.778C155.936 322.337 156.435 322.787 157.026 323.078L149.159 330.76L162.012 323.441H198.791C199.729 323.441 200.628 323.068 201.291 322.405C201.954 321.742 202.327 320.842 202.327 319.905V313.885C202.325 312.951 201.953 312.057 201.294 311.396C200.635 310.735 199.742 310.362 198.809 310.357Z" fill="#4A11E4"/>
<path d="M149.176 330.973C149.132 330.973 149.089 330.96 149.052 330.935C149.016 330.911 148.987 330.876 148.97 330.835C148.954 330.794 148.95 330.749 148.959 330.706C148.968 330.663 148.99 330.623 149.022 330.592L156.677 323.118C156.118 322.789 155.655 322.319 155.334 321.756C155.013 321.192 154.845 320.554 154.847 319.905V313.885C154.847 312.891 155.242 311.937 155.945 311.235C156.648 310.532 157.601 310.137 158.595 310.137H198.817C199.812 310.137 200.765 310.532 201.468 311.235C202.171 311.937 202.566 312.891 202.566 313.885V319.905C202.566 320.899 202.171 321.852 201.468 322.555C200.765 323.258 199.812 323.653 198.817 323.653H162.087L149.269 330.942C149.241 330.958 149.209 330.969 149.176 330.973ZM158.595 310.579C157.719 310.58 156.879 310.929 156.259 311.548C155.639 312.168 155.29 313.008 155.289 313.885V319.905C155.288 320.523 155.461 321.13 155.788 321.654C156.116 322.179 156.585 322.601 157.141 322.871C157.173 322.886 157.201 322.909 157.223 322.938C157.244 322.966 157.259 322.999 157.265 323.034C157.27 323.07 157.266 323.106 157.255 323.139C157.243 323.173 157.224 323.204 157.199 323.229L150.569 329.708L161.928 323.238C161.962 323.22 162 323.211 162.039 323.211H198.817C199.694 323.211 200.535 322.863 201.155 322.243C201.775 321.623 202.124 320.782 202.124 319.905V313.885C202.124 313.008 201.775 312.167 201.155 311.547C200.535 310.927 199.694 310.579 198.817 310.579H158.595Z" fill="white"/>
<path d="M163.856 314.061C163.896 313.939 164.068 313.939 164.108 314.061L164.746 316.025C164.764 316.079 164.815 316.116 164.872 316.116H166.937C167.065 316.116 167.119 316.281 167.015 316.356L165.345 317.57C165.298 317.603 165.279 317.663 165.296 317.718L165.934 319.681C165.974 319.804 165.834 319.905 165.73 319.83L164.06 318.616C164.014 318.582 163.951 318.582 163.904 318.616L162.234 319.83C162.13 319.905 161.99 319.804 162.03 319.681L162.668 317.718C162.685 317.663 162.666 317.603 162.62 317.57L160.949 316.356C160.845 316.281 160.899 316.116 161.027 316.116H163.092C163.149 316.116 163.2 316.079 163.218 316.025L163.856 314.061Z" fill="#EEF220"/>
<path d="M170.928 314.061C170.968 313.939 171.14 313.939 171.18 314.061L171.818 316.025C171.836 316.079 171.887 316.116 171.944 316.116H174.009C174.137 316.116 174.191 316.281 174.087 316.356L172.417 317.57C172.37 317.603 172.351 317.663 172.368 317.718L173.006 319.681C173.046 319.804 172.906 319.905 172.802 319.83L171.132 318.616C171.086 318.582 171.023 318.582 170.976 318.616L169.306 319.83C169.202 319.905 169.062 319.804 169.102 319.681L169.74 317.718C169.758 317.663 169.738 317.603 169.692 317.57L168.021 316.356C167.917 316.281 167.971 316.116 168.099 316.116H170.164C170.221 316.116 170.272 316.079 170.29 316.025L170.928 314.061Z" fill="#EEF220"/>
<path d="M178 314.061C178.04 313.939 178.213 313.939 178.252 314.061L178.89 316.025C178.908 316.079 178.959 316.116 179.016 316.116H181.081C181.209 316.116 181.263 316.281 181.159 316.356L179.489 317.57C179.442 317.603 179.423 317.663 179.44 317.718L180.078 319.681C180.118 319.804 179.978 319.905 179.874 319.83L178.204 318.616C178.158 318.582 178.095 318.582 178.048 318.616L176.378 319.83C176.274 319.905 176.134 319.804 176.174 319.681L176.812 317.718C176.83 317.663 176.81 317.603 176.764 317.57L175.093 316.356C174.989 316.281 175.043 316.116 175.171 316.116H177.236C177.293 316.116 177.344 316.079 177.362 316.025L178 314.061Z" fill="#EEF220"/>
<path d="M185.072 314.061C185.112 313.939 185.285 313.939 185.324 314.061L185.962 316.025C185.98 316.079 186.031 316.116 186.088 316.116H188.153C188.281 316.116 188.335 316.281 188.231 316.356L186.561 317.57C186.514 317.603 186.495 317.663 186.512 317.718L187.15 319.681C187.19 319.804 187.05 319.905 186.946 319.83L185.276 318.616C185.23 318.582 185.167 318.582 185.12 318.616L183.45 319.83C183.346 319.905 183.206 319.804 183.246 319.681L183.884 317.718C183.902 317.663 183.882 317.603 183.836 317.57L182.165 316.356C182.061 316.281 182.115 316.116 182.243 316.116H184.308C184.365 316.116 184.416 316.079 184.434 316.025L185.072 314.061Z" fill="#EEF220"/>
<path d="M192.144 314.061C192.184 313.939 192.357 313.939 192.396 314.061L193.034 316.025C193.052 316.079 193.103 316.116 193.16 316.116H195.225C195.353 316.116 195.407 316.281 195.303 316.356L193.633 317.57C193.586 317.603 193.567 317.663 193.584 317.718L194.222 319.681C194.262 319.804 194.122 319.905 194.018 319.83L192.348 318.616C192.302 318.582 192.239 318.582 192.192 318.616L190.522 319.83C190.418 319.905 190.278 319.804 190.318 319.681L190.956 317.718C190.974 317.663 190.954 317.603 190.908 317.57L189.237 316.356C189.133 316.281 189.187 316.116 189.315 316.116H191.38C191.437 316.116 191.488 316.079 191.506 316.025L192.144 314.061Z" fill="#EEF220"/>
<path d="M174.257 359.713L152.583 361.739L155.43 392.184L177.104 390.158L174.257 359.713Z" fill="white"/>
<path d="M177.124 390.377L155.45 392.403C155.392 392.409 155.334 392.391 155.288 392.353C155.243 392.316 155.215 392.262 155.209 392.204L152.363 361.759C152.359 361.701 152.377 361.643 152.415 361.599C152.452 361.554 152.505 361.525 152.563 361.518L174.237 359.492C174.295 359.487 174.353 359.505 174.398 359.542C174.444 359.58 174.472 359.633 174.477 359.692L177.324 390.137C177.329 390.195 177.311 390.253 177.274 390.298C177.236 390.343 177.182 390.372 177.124 390.377ZM155.629 391.943L176.863 389.958L174.058 359.953L152.824 361.938L155.629 391.943Z" fill="#263238"/>
<path d="M175.07 368.405L171.608 365.035L165.988 377.338L161.297 374.935L155.43 392.184L177.104 390.158L175.07 368.405Z" fill="#4A11E4"/>
<path d="M177.124 390.378L155.45 392.404C155.414 392.408 155.377 392.403 155.343 392.389C155.309 392.374 155.279 392.352 155.256 392.323C155.234 392.294 155.219 392.259 155.213 392.223C155.207 392.187 155.211 392.149 155.223 392.115L161.077 374.854C161.087 374.824 161.104 374.798 161.126 374.775C161.147 374.752 161.173 374.734 161.202 374.722C161.231 374.709 161.264 374.702 161.296 374.703C161.328 374.704 161.36 374.712 161.389 374.727L165.875 377.029L171.403 364.934C171.417 364.901 171.439 364.873 171.467 364.851C171.496 364.829 171.529 364.814 171.564 364.808C171.598 364.802 171.634 364.805 171.667 364.815C171.7 364.825 171.731 364.842 171.756 364.866L175.219 368.24C175.257 368.275 175.281 368.324 175.285 368.376L177.318 390.129C177.322 390.158 177.32 390.188 177.313 390.216C177.305 390.245 177.292 390.271 177.274 390.294C177.256 390.318 177.233 390.337 177.207 390.351C177.182 390.366 177.153 390.375 177.124 390.378ZM155.752 391.932L176.876 389.957L174.871 368.508L171.68 365.428L166.201 377.429C166.173 377.484 166.127 377.526 166.07 377.548C166.041 377.557 166.011 377.561 165.981 377.558C165.951 377.556 165.922 377.547 165.895 377.533L161.426 375.265L155.752 391.932Z" fill="#263238"/>
<path d="M160.664 366.732C160.707 367.184 160.615 367.639 160.399 368.039C160.184 368.439 159.855 368.765 159.453 368.978C159.052 369.19 158.597 369.279 158.145 369.232C157.693 369.186 157.266 369.006 156.916 368.716C156.566 368.427 156.311 368.04 156.181 367.604C156.052 367.169 156.055 366.705 156.189 366.271C156.323 365.838 156.583 365.454 156.936 365.168C157.289 364.882 157.719 364.707 158.171 364.666C158.775 364.611 159.377 364.797 159.844 365.184C160.311 365.572 160.606 366.128 160.664 366.732Z" fill="#4A11E4"/>
<path d="M158.618 369.449C158.123 369.497 157.625 369.396 157.187 369.16C156.749 368.924 156.39 368.563 156.157 368.123C155.924 367.684 155.827 367.185 155.878 366.69C155.929 366.195 156.125 365.726 156.442 365.342C156.759 364.959 157.183 364.678 157.66 364.536C158.137 364.394 158.645 364.396 159.121 364.542C159.596 364.689 160.018 364.973 160.331 365.359C160.645 365.746 160.837 366.216 160.884 366.712C160.946 367.375 160.742 368.036 160.317 368.549C159.893 369.062 159.281 369.386 158.618 369.449ZM158.192 364.886C157.783 364.923 157.395 365.081 157.076 365.339C156.757 365.597 156.522 365.944 156.4 366.336C156.279 366.728 156.276 367.148 156.393 367.541C156.51 367.934 156.741 368.284 157.057 368.546C157.373 368.808 157.76 368.97 158.168 369.012C158.576 369.054 158.988 368.974 159.35 368.782C159.713 368.59 160.01 368.295 160.205 367.933C160.4 367.572 160.483 367.161 160.444 366.753C160.392 366.207 160.125 365.704 159.703 365.354C159.281 365.004 158.738 364.836 158.192 364.886Z" fill="#263238"/>
<path d="M198.018 348.652L176.344 350.678L179.19 381.123L200.864 379.096L198.018 348.652Z" fill="white"/>
<path d="M200.884 379.317L179.21 381.343C179.152 381.348 179.094 381.33 179.048 381.293C179.003 381.256 178.975 381.202 178.969 381.143L176.123 350.699C176.118 350.64 176.136 350.582 176.173 350.537C176.211 350.492 176.264 350.463 176.323 350.458L197.997 348.432C198.055 348.427 198.112 348.446 198.157 348.483C198.202 348.52 198.231 348.573 198.237 348.631L201.084 379.076C201.089 379.134 201.071 379.193 201.034 379.238C200.996 379.283 200.942 379.311 200.884 379.317ZM179.389 380.882L200.623 378.897L197.818 348.892L176.584 350.877L179.389 380.882Z" fill="#263238"/>
<path d="M198.83 357.343L195.363 353.974L189.743 366.277L185.053 363.874L179.19 381.123L200.864 379.096L198.83 357.343Z" fill="#4A11E4"/>
<path d="M200.884 379.317L179.21 381.343C179.173 381.348 179.136 381.342 179.102 381.327C179.068 381.313 179.038 381.289 179.016 381.259C178.996 381.229 178.983 381.195 178.98 381.158C178.976 381.122 178.982 381.086 178.997 381.053L184.841 363.792C184.852 363.762 184.869 363.735 184.892 363.712C184.914 363.69 184.941 363.672 184.971 363.66C184.999 363.647 185.031 363.64 185.063 363.641C185.094 363.642 185.125 363.65 185.153 363.666L189.639 365.967L195.167 353.873C195.182 353.841 195.204 353.812 195.232 353.79C195.261 353.768 195.293 353.753 195.329 353.747C195.363 353.741 195.399 353.744 195.433 353.753C195.467 353.763 195.498 353.781 195.525 353.804L198.988 357.178C199.024 357.215 199.047 357.263 199.054 357.314L201.087 379.067C201.091 379.097 201.089 379.128 201.081 379.157C201.073 379.186 201.059 379.213 201.04 379.236C201.021 379.26 200.997 379.279 200.97 379.293C200.944 379.307 200.914 379.315 200.884 379.317ZM179.508 380.872L200.632 378.897L198.627 357.447L195.435 354.367L189.965 366.368C189.952 366.395 189.934 366.42 189.911 366.44C189.889 366.46 189.863 366.476 189.834 366.486C189.806 366.496 189.777 366.5 189.747 366.497C189.718 366.494 189.69 366.486 189.664 366.471L185.181 364.204L179.508 380.872Z" fill="#263238"/>
<path d="M184.424 355.671C184.467 356.123 184.375 356.577 184.16 356.977C183.944 357.376 183.615 357.703 183.214 357.916C182.813 358.128 182.358 358.217 181.907 358.171C181.455 358.125 181.027 357.946 180.678 357.656C180.328 357.367 180.072 356.98 179.942 356.545C179.812 356.111 179.814 355.647 179.948 355.213C180.082 354.779 180.341 354.395 180.693 354.109C181.045 353.822 181.475 353.647 181.927 353.605C182.531 353.549 183.133 353.736 183.601 354.123C184.069 354.51 184.365 355.067 184.424 355.671Z" fill="#4A11E4"/>
<path d="M182.374 367.229C181.878 367.275 181.38 367.174 180.943 366.937C180.505 366.701 180.148 366.339 179.916 365.9C179.683 365.46 179.587 364.961 179.638 364.466C179.689 363.971 179.886 363.503 180.203 363.12C180.521 362.737 180.945 362.457 181.421 362.315C181.898 362.173 182.406 362.175 182.882 362.322C183.357 362.469 183.778 362.753 184.092 363.139C184.405 363.525 184.597 363.996 184.644 364.491C184.706 365.155 184.501 365.817 184.076 366.33C183.65 366.844 183.038 367.167 182.374 367.229ZM181.947 362.665C181.539 362.704 181.151 362.862 180.832 363.121C180.514 363.38 180.28 363.727 180.159 364.119C180.038 364.511 180.036 364.93 180.154 365.323C180.271 365.716 180.503 366.065 180.819 366.327C181.135 366.588 181.521 366.75 181.929 366.792C182.337 366.833 182.749 366.753 183.111 366.561C183.473 366.369 183.771 366.073 183.965 365.712C184.16 365.351 184.243 364.94 184.203 364.532C184.151 363.986 183.884 363.482 183.461 363.132C183.038 362.782 182.494 362.614 181.947 362.665Z" fill="#263238"/>
<path d="M150.502 361.934L128.828 363.96L131.674 394.405L153.348 392.379L150.502 361.934Z" fill="white"/>
<path d="M153.369 392.599L131.695 394.625C131.636 394.631 131.578 394.613 131.533 394.575C131.488 394.538 131.46 394.484 131.454 394.426L128.608 363.981C128.604 363.923 128.622 363.865 128.659 363.82C128.696 363.775 128.75 363.747 128.807 363.74L150.481 361.714C150.54 361.709 150.598 361.726 150.643 361.764C150.688 361.801 150.717 361.855 150.722 361.913L153.568 392.358C153.574 392.417 153.556 392.475 153.518 392.52C153.481 392.565 153.427 392.593 153.369 392.599ZM131.874 394.164L153.108 392.179L150.303 362.175L129.069 364.16L131.874 394.164Z" fill="#263238"/>
<path d="M140.356 370.598C139.65 370.662 138.964 370.865 138.337 371.195C137.709 371.525 137.153 371.975 136.7 372.52C136.247 373.065 135.906 373.694 135.697 374.371C135.487 375.048 135.414 375.76 135.48 376.465C135.758 379.44 141.67 384.658 141.67 384.658C141.67 384.658 146.5 378.436 146.221 375.452C146.086 374.031 145.392 372.722 144.293 371.812C143.193 370.902 141.777 370.465 140.356 370.598ZM141.055 378.079C140.638 378.118 140.219 378.033 139.851 377.833C139.483 377.634 139.182 377.33 138.986 376.96C138.79 376.59 138.709 376.17 138.752 375.753C138.795 375.337 138.961 374.942 139.228 374.62C139.495 374.298 139.852 374.062 140.254 373.942C140.655 373.823 141.083 373.825 141.483 373.948C141.883 374.072 142.237 374.311 142.501 374.636C142.765 374.961 142.927 375.357 142.966 375.774C143.013 376.33 142.839 376.882 142.48 377.31C142.122 377.738 141.609 378.006 141.053 378.057L141.055 378.079Z" fill="#4A11E4"/>
<path d="M141.692 384.888C141.662 384.891 141.632 384.887 141.603 384.878C141.575 384.868 141.549 384.853 141.527 384.832C141.28 384.616 135.555 379.5 135.273 376.485C135.134 375.004 135.59 373.528 136.539 372.383C137.489 371.238 138.854 370.517 140.335 370.378C141.816 370.24 143.292 370.695 144.437 371.645C145.582 372.594 146.304 373.96 146.442 375.441C146.724 378.455 142.046 384.544 141.848 384.802C141.829 384.826 141.805 384.846 141.779 384.861C141.752 384.875 141.722 384.885 141.692 384.888ZM140.375 370.805C139.011 370.934 137.754 371.599 136.88 372.653C136.005 373.708 135.585 375.067 135.712 376.431C135.951 378.988 140.659 383.431 141.638 384.311C142.426 383.248 146.238 378.008 146.001 375.469C145.869 374.107 145.203 372.854 144.149 371.982C143.095 371.111 141.738 370.692 140.377 370.818L140.375 370.805ZM141.075 378.287C140.614 378.33 140.151 378.235 139.745 378.015C139.338 377.795 139.005 377.459 138.789 377.051C138.574 376.642 138.484 376.178 138.531 375.718C138.579 375.258 138.762 374.822 139.057 374.466C139.352 374.11 139.746 373.85 140.189 373.718C140.633 373.586 141.105 373.588 141.547 373.724C141.989 373.861 142.38 374.125 142.672 374.484C142.963 374.843 143.142 375.28 143.185 375.741C143.214 376.047 143.183 376.356 143.093 376.65C143.002 376.943 142.855 377.217 142.659 377.454C142.463 377.69 142.222 377.886 141.95 378.03C141.679 378.174 141.381 378.262 141.075 378.291L141.075 378.287ZM140.681 374.071C140.307 374.106 139.952 374.25 139.661 374.487C139.37 374.723 139.156 375.041 139.045 375.399C138.935 375.757 138.933 376.141 139.04 376.5C139.147 376.859 139.358 377.179 139.647 377.418C139.936 377.658 140.289 377.806 140.662 377.845C141.035 377.883 141.411 377.81 141.743 377.635C142.074 377.46 142.346 377.191 142.525 376.861C142.703 376.531 142.78 376.155 142.745 375.782C142.692 375.287 142.445 374.832 142.06 374.517C141.674 374.201 141.179 374.051 140.683 374.097L140.681 374.071Z" fill="#263238"/>
<path d="M151.845 378.678L148.694 378.973C148.636 378.978 148.578 378.96 148.533 378.923C148.488 378.885 148.459 378.831 148.454 378.773L147.282 366.24L134.885 367.399C134.827 367.404 134.768 367.386 134.723 367.349C134.678 367.311 134.65 367.257 134.644 367.199L134.324 363.771C134.319 363.713 134.338 363.655 134.375 363.61C134.412 363.565 134.465 363.537 134.523 363.53C134.582 363.525 134.64 363.543 134.685 363.58C134.73 363.618 134.758 363.671 134.764 363.73L135.064 366.938L147.461 365.779C147.519 365.775 147.577 365.793 147.621 365.83C147.666 365.867 147.695 365.921 147.701 365.978L148.873 378.512L151.804 378.238C151.862 378.232 151.921 378.25 151.966 378.288C152.011 378.325 152.039 378.379 152.045 378.437C152.05 378.496 152.032 378.554 151.995 378.599C151.957 378.644 151.904 378.673 151.845 378.678Z" fill="#263238"/>
<path d="M129.99 374.208C129.937 374.213 129.884 374.199 129.84 374.169C129.816 374.152 129.796 374.131 129.781 374.106C129.765 374.082 129.755 374.055 129.75 374.026C129.745 373.998 129.746 373.969 129.753 373.94C129.76 373.912 129.772 373.886 129.789 373.863L134.687 367.039C134.723 366.994 134.774 366.965 134.83 366.957C134.887 366.95 134.944 366.964 134.99 366.998C135.036 367.031 135.067 367.081 135.077 367.137C135.088 367.193 135.076 367.251 135.044 367.298L130.15 374.117C130.131 374.143 130.107 374.164 130.08 374.179C130.052 374.195 130.022 374.205 129.99 374.208Z" fill="#263238"/>
<path d="M144.765 393.168C144.707 393.174 144.649 393.156 144.604 393.118C144.559 393.081 144.53 393.027 144.525 392.969L143.846 385.703C143.84 385.645 143.858 385.586 143.895 385.541C143.933 385.496 143.987 385.468 144.045 385.462L149.036 384.996L148.454 378.773C148.448 378.715 148.466 378.656 148.504 378.611C148.541 378.566 148.595 378.538 148.653 378.532C148.712 378.527 148.77 378.545 148.815 378.582C148.86 378.62 148.888 378.673 148.894 378.732L149.496 385.175C149.502 385.233 149.484 385.291 149.446 385.336C149.409 385.381 149.355 385.41 149.297 385.415L144.306 385.882L144.964 392.923C144.968 392.952 144.965 392.982 144.957 393.01C144.949 393.038 144.935 393.065 144.916 393.087C144.898 393.11 144.875 393.129 144.849 393.143C144.823 393.157 144.795 393.165 144.765 393.168Z" fill="#263238"/>
<path d="M152.853 387.986L135.166 389.64C135.108 389.645 135.05 389.627 135.005 389.59C134.96 389.552 134.931 389.498 134.926 389.44L134.523 385.136L131.179 385.449C131.12 385.454 131.062 385.436 131.017 385.399C130.972 385.361 130.944 385.308 130.938 385.249C130.933 385.191 130.951 385.133 130.988 385.088C131.025 385.043 131.079 385.014 131.138 385.009L134.702 384.675C134.761 384.67 134.819 384.688 134.864 384.725C134.909 384.763 134.937 384.817 134.943 384.875L135.345 389.179L152.812 387.546C152.87 387.541 152.928 387.559 152.974 387.596C153.019 387.633 153.047 387.687 153.053 387.746C153.058 387.804 153.04 387.862 153.003 387.907C152.965 387.952 152.911 387.981 152.853 387.986Z" fill="#263238"/>
<path d="M138.732 393.732C138.673 393.738 138.615 393.72 138.57 393.682C138.525 393.645 138.497 393.591 138.491 393.533L138.094 389.282C138.088 389.223 138.106 389.165 138.144 389.12C138.181 389.075 138.235 389.046 138.293 389.041C138.352 389.035 138.41 389.053 138.455 389.091C138.5 389.128 138.528 389.182 138.534 389.24L138.931 393.492C138.937 393.55 138.919 393.608 138.881 393.653C138.844 393.698 138.79 393.727 138.732 393.732Z" fill="#263238"/>
<path d="M143.461 371.094C143.432 371.096 143.403 371.093 143.376 371.084C143.348 371.075 143.323 371.061 143.301 371.042C143.278 371.024 143.26 371.001 143.246 370.975C143.232 370.949 143.224 370.921 143.221 370.892C143.218 370.863 143.221 370.834 143.23 370.806C143.239 370.778 143.253 370.752 143.271 370.73L147.261 365.918L146.95 362.591C146.944 362.532 146.962 362.474 147 362.429C147.037 362.384 147.091 362.355 147.149 362.35C147.207 362.346 147.265 362.364 147.31 362.401C147.355 362.438 147.383 362.492 147.39 362.549L147.71 365.978C147.715 366.037 147.697 366.096 147.659 366.142L143.618 371.013C143.599 371.037 143.575 371.057 143.548 371.071C143.521 371.085 143.491 371.093 143.461 371.094Z" fill="#263238"/>
<path d="M136.563 379.414L130.529 379.978C130.471 379.984 130.413 379.966 130.368 379.928C130.323 379.891 130.294 379.837 130.289 379.779C130.283 379.72 130.301 379.662 130.339 379.617C130.376 379.572 130.43 379.543 130.488 379.538L136.522 378.974C136.58 378.969 136.638 378.986 136.683 379.024C136.729 379.061 136.757 379.115 136.762 379.173C136.768 379.232 136.75 379.29 136.713 379.335C136.675 379.38 136.621 379.409 136.563 379.414Z" fill="#263238"/>
<path d="M180.531 241.189V241.925H181.333V242.162H180.531V242.919H181.427V243.156H180.243V240.952H181.427V241.189H180.531ZM184.126 240.971V243.156H183.839V241.527L183.113 243.156H182.911L182.181 241.524V243.156H181.894V240.971H182.203L183.012 242.777L183.82 240.971H184.126ZM186.621 242.023C186.701 242.035 186.774 242.068 186.839 242.12C186.906 242.173 186.959 242.238 186.997 242.316C187.037 242.394 187.057 242.477 187.057 242.566C187.057 242.677 187.028 242.778 186.971 242.869C186.915 242.957 186.831 243.028 186.722 243.08C186.615 243.131 186.487 243.156 186.34 243.156H185.519V240.955H186.308C186.458 240.955 186.585 240.98 186.69 241.031C186.796 241.079 186.875 241.146 186.927 241.23C186.98 241.314 187.006 241.409 187.006 241.514C187.006 241.645 186.97 241.753 186.899 241.839C186.829 241.924 186.737 241.985 186.621 242.023ZM185.806 241.906H186.289C186.424 241.906 186.528 241.874 186.602 241.811C186.676 241.748 186.713 241.66 186.713 241.549C186.713 241.437 186.676 241.35 186.602 241.287C186.528 241.224 186.422 241.192 186.283 241.192H185.806V241.906ZM186.315 242.919C186.458 242.919 186.569 242.886 186.649 242.818C186.729 242.751 186.769 242.657 186.769 242.537C186.769 242.415 186.727 242.319 186.643 242.25C186.559 242.178 186.446 242.143 186.305 242.143H185.806V242.919H186.315ZM188.646 243.156L188.122 242.256H187.774V243.156H187.487V240.955H188.198C188.364 240.955 188.504 240.984 188.618 241.04C188.733 241.097 188.82 241.174 188.877 241.271C188.933 241.368 188.962 241.478 188.962 241.603C188.962 241.754 188.918 241.888 188.829 242.004C188.743 242.119 188.612 242.196 188.438 242.234L188.99 243.156H188.646ZM187.774 242.026H188.198C188.353 242.026 188.47 241.988 188.548 241.912C188.626 241.834 188.665 241.731 188.665 241.603C188.665 241.472 188.626 241.371 188.548 241.299C188.472 241.228 188.355 241.192 188.198 241.192H187.774V242.026ZM189.727 241.189V241.925H190.529V242.162H189.727V242.919H190.624V243.156H189.44V240.952H190.624V241.189H189.727ZM192.909 240.955L192.079 243.156H191.747L190.917 240.955H191.223L191.915 242.853L192.606 240.955H192.909ZM193.544 241.189V241.925H194.346V242.162H193.544V242.919H194.44V243.156H193.256V240.952H194.44V241.189H193.544Z" fill="black"/>
<defs>
<linearGradient id="paint0_linear_731_15034" x1="76.7542" y1="228.932" x2="72.1762" y2="228.904" gradientUnits="userSpaceOnUse">
<stop stop-color="#1570EF"/>
<stop offset="1" stop-color="#6938EF"/>
</linearGradient>
<linearGradient id="paint1_linear_731_15034" x1="43.9852" y1="322.068" x2="43.9852" y2="354.603" gradientUnits="userSpaceOnUse">
<stop stop-color="#CF3277"/>
<stop offset="1" stop-color="#F56437"/>
</linearGradient>
</defs>
</svg>
