<svg width="130" height="126" viewBox="0 0 130 126" fill="none" xmlns="http://www.w3.org/2000/svg">
<path d="M50.9441 29.4248H19.7045C19.4445 29.4245 19.1953 29.3211 19.0115 29.1373C18.8276 28.9534 18.7242 28.7042 18.724 28.4442V4.72379C18.7242 4.46381 18.8276 4.21456 19.0115 4.03072C19.1953 3.84688 19.4445 3.74346 19.7045 3.74315H58.0496C58.3096 3.74346 58.5588 3.84688 58.7426 4.03072C58.9264 4.21456 59.0298 4.46381 59.0301 4.72379V21.3388C59.0277 23.4826 58.175 25.5379 56.6591 27.0538C55.1432 28.5697 53.0879 29.4223 50.9441 29.4248Z" fill="white"/>
<path d="M50.9459 29.5133H19.7062C19.4227 29.513 19.1509 29.4002 18.9504 29.1997C18.7499 28.9992 18.6372 28.7274 18.6368 28.4439V4.72348C18.6372 4.43994 18.7499 4.16811 18.9504 3.96761C19.1509 3.76711 19.4227 3.65432 19.7062 3.65398H58.0513C58.3348 3.6543 58.6067 3.76709 58.8072 3.96759C59.0076 4.16809 59.1204 4.43994 59.1207 4.72348V21.3385C59.1182 23.5058 58.2562 25.5837 56.7236 27.1162C55.1911 28.6488 53.1132 29.5108 50.9459 29.5133ZM19.7062 4.00941C19.5169 4.00964 19.3355 4.08495 19.2016 4.21882C19.0678 4.35268 18.9925 4.53417 18.9923 4.72348V28.4439C18.9925 28.6332 19.0678 28.8147 19.2016 28.9485C19.3355 29.0824 19.5169 29.1577 19.7062 29.1579H50.9459C53.019 29.1555 55.0065 28.331 56.4724 26.865C57.9384 25.3991 58.7629 23.4116 58.7653 21.3385V4.72348C58.7651 4.53417 58.6898 4.35268 58.5559 4.21882C58.4221 4.08495 58.2406 4.00964 58.0513 4.00941H19.7062Z" fill="#CCCCCC"/>
<path d="M50.4698 11.7543H27.2844C27.0716 11.7543 26.8674 11.6697 26.7169 11.5192C26.5664 11.3687 26.4819 11.1646 26.4819 10.9517C26.4819 10.7389 26.5664 10.5347 26.7169 10.3842C26.8674 10.2337 27.0716 10.1491 27.2844 10.1491H50.4698C50.6825 10.1495 50.8863 10.2342 51.0366 10.3846C51.1868 10.5351 51.2712 10.7391 51.2712 10.9517C51.2712 11.1644 51.1868 11.3683 51.0366 11.5188C50.8863 11.6693 50.6825 11.754 50.4698 11.7543Z" fill="#CCCCCC"/>
<path d="M50.4698 17.2824H27.2844C27.0716 17.2824 26.8674 17.1978 26.7169 17.0473C26.5664 16.8968 26.4819 16.6927 26.4819 16.4798C26.4819 16.267 26.5664 16.0628 26.7169 15.9123C26.8674 15.7618 27.0716 15.6773 27.2844 15.6773H50.4698C50.6827 15.6773 50.8868 15.7618 51.0373 15.9123C51.1878 16.0628 51.2724 16.267 51.2724 16.4798C51.2724 16.6927 51.1878 16.8968 51.0373 17.0473C50.8868 17.1978 50.6827 17.2824 50.4698 17.2824Z" fill="#CCCCCC"/>
<path d="M50.4698 22.9694H27.2844C27.0716 22.9694 26.8674 22.8848 26.7169 22.7343C26.5664 22.5838 26.4819 22.3797 26.4819 22.1668C26.4819 21.954 26.5664 21.7498 26.7169 21.5993C26.8674 21.4488 27.0716 21.3643 27.2844 21.3643H50.4698C50.6827 21.3643 50.8868 21.4488 51.0373 21.5993C51.1878 21.7498 51.2724 21.954 51.2724 22.1668C51.2724 22.3797 51.1878 22.5838 51.0373 22.7343C50.8868 22.8848 50.6827 22.9694 50.4698 22.9694Z" fill="#CCCCCC"/>
<path d="M57.7626 9.58538C60.4095 9.58538 62.5553 7.43962 62.5553 4.79269C62.5553 2.14576 60.4095 0 57.7626 0C55.1157 0 52.9699 2.14576 52.9699 4.79269C52.9699 7.43962 55.1157 9.58538 57.7626 9.58538Z" fill="#0B9321"/>
<path d="M57.1084 7.28628C57.0257 7.28628 56.944 7.267 56.87 7.22998C56.796 7.19296 56.7316 7.13921 56.682 7.07298L55.3745 5.3296C55.3325 5.27359 55.3019 5.20986 55.2845 5.14204C55.2672 5.07422 55.2633 5.00364 55.2732 4.93434C55.2831 4.86503 55.3066 4.79836 55.3422 4.73812C55.3779 4.67788 55.4251 4.62526 55.4811 4.58325C55.5371 4.54125 55.6009 4.51069 55.6687 4.49332C55.7365 4.47594 55.8071 4.4721 55.8764 4.482C55.9457 4.4919 56.0124 4.51536 56.0726 4.55103C56.1328 4.5867 56.1855 4.63389 56.2275 4.6899L57.0829 5.83038L59.2799 2.53485C59.3584 2.4172 59.4803 2.33553 59.619 2.3078C59.7576 2.28007 59.9016 2.30856 60.0192 2.38699C60.1369 2.46542 60.2186 2.58737 60.2463 2.72602C60.274 2.86467 60.2455 3.00866 60.1671 3.12631L57.5521 7.04886C57.5048 7.1198 57.4411 7.17837 57.3665 7.21965C57.2919 7.26093 57.2085 7.28372 57.1233 7.28611C57.1183 7.2862 57.1134 7.28628 57.1084 7.28628Z" fill="white"/>
<path d="M39.4138 50.0276H8.17414C6.03035 50.0251 3.97505 49.1725 2.45915 47.6566C0.943257 46.1407 0.0905651 44.0854 0.0881465 41.9416V25.3265C0.0884517 25.0665 0.191867 24.8173 0.375706 24.6334C0.559546 24.4496 0.808798 24.3462 1.06879 24.3459H39.4138C39.6737 24.3462 39.923 24.4496 40.1068 24.6334C40.2907 24.8173 40.3941 25.0665 40.3944 25.3265V49.0469C40.3941 49.3069 40.2907 49.5562 40.1068 49.74C39.923 49.9238 39.6737 50.0273 39.4138 50.0276Z" fill="white"/>
<path d="M39.4145 50.1161H8.17486C6.00751 50.1136 3.92963 49.2516 2.39708 47.719C0.864532 46.1865 0.00246422 44.1086 0 41.9412V25.3262C0.000321257 25.0426 0.113104 24.7708 0.313603 24.5703C0.514103 24.3698 0.785947 24.257 1.0695 24.2567H39.4145C39.698 24.257 39.9699 24.3698 40.1704 24.5703C40.3709 24.7708 40.4836 25.0426 40.484 25.3262V49.0466C40.4836 49.3302 40.3709 49.602 40.1704 49.8025C39.9699 50.003 39.698 50.1158 39.4145 50.1161ZM1.0695 24.6121C0.880184 24.6123 0.69869 24.6876 0.564826 24.8215C0.430962 24.9554 0.355657 25.1369 0.355429 25.3262V41.9412C0.35777 44.0144 1.18235 46.0019 2.64827 47.4678C4.11419 48.9338 6.10173 49.7583 8.17486 49.7607H39.4145C39.6038 49.7605 39.7853 49.6852 39.9192 49.5513C40.053 49.4174 40.1283 49.2359 40.1285 49.0466V25.3262C40.1283 25.1369 40.053 24.9554 39.9191 24.8215C39.7853 24.6876 39.6038 24.6123 39.4145 24.6121H1.0695Z" fill="#CCCCCC"/>
<path d="M31.835 32.3565H8.64966C8.43681 32.3565 8.23267 32.2719 8.08216 32.1214C7.93164 31.9709 7.84709 31.7668 7.84709 31.5539C7.84709 31.3411 7.93164 31.1369 8.08216 30.9864C8.23267 30.8359 8.43681 30.7513 8.64966 30.7513H31.835C32.0479 30.7513 32.252 30.8359 32.4025 30.9864C32.553 31.1369 32.6376 31.3411 32.6376 31.5539C32.6376 31.7668 32.553 31.9709 32.4025 32.1214C32.252 32.2719 32.0479 32.3565 31.835 32.3565Z" fill="#CCCCCC"/>
<path d="M31.835 37.8851H8.64966C8.43681 37.8851 8.23267 37.8006 8.08216 37.65C7.93164 37.4995 7.84709 37.2954 7.84709 37.0825C7.84709 36.8697 7.93164 36.6655 8.08216 36.515C8.23267 36.3645 8.43681 36.28 8.64966 36.28H31.835C32.0479 36.28 32.252 36.3645 32.4025 36.515C32.5531 36.6655 32.6376 36.8697 32.6376 37.0825C32.6376 37.2954 32.5531 37.4995 32.4025 37.65C32.252 37.8006 32.0479 37.8851 31.835 37.8851Z" fill="#CCCCCC"/>
<path d="M31.835 43.5721H8.64966C8.43681 43.5721 8.23267 43.4875 8.08216 43.337C7.93164 43.1865 7.84709 42.9824 7.84709 42.7695C7.84709 42.5567 7.93164 42.3525 8.08216 42.202C8.23267 42.0515 8.43681 41.967 8.64966 41.967H31.835C32.0479 41.967 32.252 42.0515 32.4025 42.202C32.5531 42.3525 32.6376 42.5567 32.6376 42.7695C32.6376 42.9824 32.5531 43.1865 32.4025 43.337C32.252 43.4875 32.0479 43.5721 31.835 43.5721Z" fill="#CCCCCC"/>
<path d="M39.4578 30.3777C42.1048 30.3777 44.2505 28.2319 44.2505 25.585C44.2505 22.9381 42.1048 20.7923 39.4578 20.7923C36.8109 20.7923 34.6651 22.9381 34.6651 25.585C34.6651 28.2319 36.8109 30.3777 39.4578 30.3777Z" fill="#0B9321"/>
<path d="M38.8047 28.0786C38.722 28.0786 38.6403 28.0593 38.5663 28.0223C38.4923 27.9853 38.4279 27.9315 38.3783 27.8653L37.0707 26.1219C37.0287 26.0659 36.9982 26.0022 36.9808 25.9344C36.9634 25.8665 36.9596 25.796 36.9695 25.7267C36.9794 25.6574 37.0029 25.5907 37.0385 25.5304C37.0742 25.4702 37.1214 25.4176 37.1774 25.3756C37.2334 25.3336 37.2971 25.303 37.3649 25.2856C37.4328 25.2683 37.5033 25.2644 37.5726 25.2743C37.642 25.2842 37.7086 25.3077 37.7689 25.3434C37.8291 25.379 37.8817 25.4262 37.9237 25.4822L38.7792 26.6227L40.9762 23.3272C41.0546 23.2095 41.1766 23.1279 41.3152 23.1001C41.4539 23.0724 41.5979 23.1009 41.7155 23.1793C41.8332 23.2577 41.9148 23.3797 41.9426 23.5183C41.9703 23.657 41.9418 23.801 41.8634 23.9186L39.2483 27.8412C39.201 27.9121 39.1374 27.9707 39.0628 28.012C38.9882 28.0533 38.9048 28.076 38.8196 28.0784C38.8146 28.0785 38.8097 28.0786 38.8047 28.0786Z" fill="white"/>
<path d="M78.3376 72.1375H34.6263C32.4825 72.1351 30.4272 71.2824 28.9113 69.7665C27.3954 68.2506 26.5427 66.1953 26.5403 64.0515V39.6134C26.5407 39.2783 26.674 38.957 26.911 38.72C27.1479 38.483 27.4692 38.3498 27.8043 38.3494H78.3376C78.6727 38.3498 78.994 38.4831 79.2309 38.72C79.4679 38.957 79.6012 39.2783 79.6015 39.6134V70.8734C79.6012 71.2085 79.4679 71.5298 79.2309 71.7668C78.994 72.0038 78.6727 72.1371 78.3376 72.1375Z" fill="white"/>
<path d="M78.3383 72.2261H34.627C32.4597 72.2236 30.3818 71.3616 28.8492 69.829C27.3167 68.2965 26.4546 66.2186 26.4521 64.0512V39.6131C26.4526 39.2544 26.5952 38.9105 26.8488 38.6569C27.1025 38.4033 27.4464 38.2606 27.805 38.2602H78.3383C78.697 38.2606 79.0408 38.4033 79.2944 38.6569C79.548 38.9106 79.6907 39.2544 79.6911 39.6131V70.8731C79.6907 71.2318 79.5481 71.5757 79.2945 71.8293C79.0409 72.083 78.697 72.2257 78.3383 72.2261ZM27.805 38.6156C27.5406 38.6159 27.2871 38.7211 27.1001 38.9081C26.9131 39.0951 26.8079 39.3486 26.8076 39.6131V64.0512C26.8099 66.1244 27.6345 68.1119 29.1004 69.5778C30.5663 71.0437 32.5539 71.8683 34.627 71.8707H78.3383C78.6027 71.8703 78.8563 71.7651 79.0432 71.5781C79.2302 71.3911 79.3354 71.1375 79.3357 70.8731V39.6131C79.3354 39.3487 79.2302 39.0951 79.0432 38.9081C78.8562 38.7211 78.6027 38.6159 78.3383 38.6156H27.805Z" fill="#CCCCCC"/>
<path d="M68.3496 48.8781H37.7946C37.6556 48.8783 37.5179 48.851 37.3894 48.798C37.2609 48.7449 37.1442 48.667 37.0458 48.5688C36.9475 48.4706 36.8694 48.3539 36.8162 48.2255C36.763 48.0971 36.7356 47.9594 36.7356 47.8204C36.7356 47.6814 36.763 47.5438 36.8162 47.4153C36.8694 47.2869 36.9475 47.1703 37.0458 47.072C37.1442 46.9738 37.2609 46.8959 37.3894 46.8429C37.5179 46.7898 37.6556 46.7626 37.7946 46.7627H68.3496C68.4886 46.7626 68.6263 46.7898 68.7548 46.8429C68.8832 46.8959 69 46.9738 69.0984 47.072C69.1967 47.1703 69.2747 47.2869 69.328 47.4153C69.3812 47.5438 69.4086 47.6814 69.4086 47.8204C69.4086 47.9594 69.3812 48.0971 69.328 48.2255C69.2747 48.3539 69.1967 48.4706 69.0984 48.5688C69 48.667 68.8832 48.7449 68.7548 48.798C68.6263 48.851 68.4886 48.8783 68.3496 48.8781Z" fill="#CCCCCC"/>
<path d="M68.3496 56.164H37.7946C37.6556 56.1642 37.5179 56.137 37.3894 56.0839C37.2609 56.0308 37.1442 55.9529 37.0458 55.8547C36.9475 55.7565 36.8694 55.6398 36.8162 55.5114C36.763 55.383 36.7356 55.2453 36.7356 55.1063C36.7356 54.9673 36.763 54.8297 36.8162 54.7013C36.8694 54.5729 36.9475 54.4562 37.0458 54.358C37.1442 54.2597 37.2609 54.1819 37.3894 54.1288C37.5179 54.0757 37.6556 54.0485 37.7946 54.0487H68.3496C68.6301 54.0487 68.8991 54.1601 69.0975 54.3584C69.2958 54.5568 69.4073 54.8258 69.4073 55.1063C69.4073 55.3869 69.2958 55.6559 69.0975 55.8542C68.8991 56.0526 68.6301 56.164 68.3496 56.164Z" fill="#CCCCCC"/>
<path d="M68.3482 63.6585H37.7932C37.5127 63.6585 37.2437 63.5471 37.0453 63.3487C36.847 63.1504 36.7356 62.8813 36.7356 62.6008C36.7356 62.3203 36.847 62.0513 37.0453 61.853C37.2437 61.6546 37.5127 61.5432 37.7932 61.5432H68.3482C68.4872 61.543 68.6249 61.5702 68.7534 61.6233C68.8819 61.6764 68.9986 61.7542 69.097 61.8525C69.1953 61.9507 69.2734 62.0674 69.3266 62.1958C69.3799 62.3242 69.4073 62.4618 69.4073 62.6008C69.4073 62.7398 69.3799 62.8775 69.3266 63.0059C69.2734 63.1343 69.1953 63.251 69.097 63.3492C68.9986 63.4474 68.8819 63.5253 68.7534 63.5784C68.6249 63.6315 68.4872 63.6587 68.3482 63.6585Z" fill="#CCCCCC"/>
<path d="M78.4967 46.3296C81.8474 46.3296 84.5637 43.6134 84.5637 40.2627C84.5637 36.912 81.8474 34.1957 78.4967 34.1957C75.146 34.1957 72.4298 36.912 72.4298 40.2627C72.4298 43.6134 75.146 46.3296 78.4967 46.3296Z" fill="#0B9321"/>
<path d="M77.6686 43.4196C77.5638 43.4196 77.4605 43.3952 77.3668 43.3483C77.2731 43.3015 77.1916 43.2334 77.1287 43.1496L75.4736 40.9427C75.4204 40.8718 75.3817 40.7911 75.3597 40.7053C75.3377 40.6194 75.3329 40.5301 75.3454 40.4423C75.3579 40.3546 75.3876 40.2702 75.4328 40.1939C75.4779 40.1177 75.5377 40.0511 75.6086 39.9979C75.6795 39.9447 75.7601 39.9061 75.846 39.8841C75.9318 39.8621 76.0212 39.8572 76.1089 39.8697C76.1966 39.8823 76.2811 39.912 76.3573 39.9571C76.4336 40.0023 76.5002 40.062 76.5534 40.1329L77.6362 41.5766L80.4174 37.4049C80.5168 37.2562 80.6711 37.153 80.8465 37.1181C81.0219 37.0831 81.204 37.1192 81.3528 37.2184C81.5016 37.3176 81.605 37.4718 81.6401 37.6472C81.6753 37.8225 81.6395 38.0047 81.5405 38.1536L78.2301 43.1191C78.1703 43.2089 78.0897 43.283 77.9953 43.3353C77.9008 43.3875 77.7952 43.4164 77.6873 43.4194C77.6811 43.4195 77.6748 43.4196 77.6686 43.4196Z" fill="white"/>
<path d="M100.313 122.786H97.7105L96.4722 112.747L100.314 112.747L100.313 122.786Z" fill="#FFB6B6"/>
<path d="M100.977 124.776L92.5846 124.776V124.67C92.5846 123.797 92.9244 123.51 93.5415 122.893C93.8441 122.589 94.204 122.348 94.6004 122.184C94.9969 122.019 95.422 121.935 95.8511 121.936L97.3843 120.774L100.244 121.937L100.977 121.937L100.977 124.776Z" fill="#2F2E41"/>
<path d="M80.5048 42.3514C80.5584 42.6241 80.6711 42.8817 80.835 43.1061C80.999 43.3305 81.2101 43.5162 81.4536 43.6502C81.697 43.7842 81.9669 43.8632 82.2442 43.8815C82.5215 43.8999 82.7994 43.8573 83.0585 43.7566L86.0632 46.8936L88.4149 45.5326L84.1094 41.1622C83.9115 40.7382 83.5649 40.4016 83.1354 40.2161C82.7059 40.0306 82.2232 40.0091 81.7789 40.1557C81.3346 40.3023 80.9594 40.6068 80.7246 41.0115C80.4898 41.4162 80.4116 41.8929 80.5048 42.3514Z" fill="#FFB6B6"/>
<path d="M99.9503 58.1251L101.305 56.7237L93.4715 49.4688L85.5876 42.4292L83.404 45.5147L91.6658 53.2264L99.9503 58.1251Z" fill="#E4E4E4"/>
<path d="M86.5233 80.5956C86.7386 80.4198 86.9127 80.199 87.0333 79.9487C87.154 79.6983 87.2183 79.4246 87.2218 79.1467C87.2252 78.8688 87.1677 78.5936 87.0532 78.3403C86.9387 78.0871 86.7702 77.862 86.5593 77.681L87.9102 73.5525L85.6015 72.1197L83.7757 77.9767C83.4951 78.3511 83.3615 78.8154 83.4004 79.2816C83.4392 79.7479 83.6477 80.1837 83.9863 80.5065C84.325 80.8294 84.7703 81.0167 85.2379 81.0331C85.7055 81.0495 86.1629 80.8939 86.5233 80.5956Z" fill="#FFB6B6"/>
<path d="M91.2715 52.5293L89.3971 51.9044L86.6898 63.9833L84.1963 75.9958L87.9466 76.5476L90.8549 63.7751L91.2715 52.5293Z" fill="#E4E4E4"/>
<path d="M93.3182 45.3294C95.7878 45.3294 97.7899 43.3274 97.7899 40.8577C97.7899 38.3881 95.7878 36.3861 93.3182 36.3861C90.8486 36.3861 88.8465 38.3881 88.8465 40.8577C88.8465 43.3274 90.8486 45.3294 93.3182 45.3294Z" fill="#FFB6B6"/>
<path d="M87.3013 38.6685C87.3425 38.2447 87.464 37.8326 87.6592 37.4542C87.8682 37.9088 88.5203 37.9876 88.9665 37.7614C89.4129 37.5352 89.7119 37.1055 90.0308 36.7199C90.8724 35.7027 92.0297 34.8775 93.3414 34.7272C94.6531 34.5769 96.0989 35.239 96.5945 36.4627C96.8169 36.1539 97.2914 36.1196 97.627 36.299C97.9513 36.5035 98.2043 36.8032 98.3514 37.1572C98.6815 37.8345 98.8681 38.5727 98.8994 39.3255C98.9306 40.0784 98.806 40.8295 98.5332 41.5319C97.9809 42.9296 96.617 44.8127 95.2098 45.3402C94.3554 45.6604 93.4925 45.2505 92.5839 45.3402C92.6315 44.3486 92.8237 43.125 92.8713 42.1334C92.8974 41.5904 92.9012 40.9828 92.5303 40.5853C92.4165 40.4773 92.2804 40.3956 92.1315 40.346C91.9827 40.2964 91.8247 40.2801 91.6689 40.2983C91.5131 40.3165 91.3632 40.3687 91.2297 40.4513C91.0963 40.5338 90.9827 40.6447 90.8968 40.776C90.8509 40.4677 90.7468 40.1709 90.59 39.9014C90.5096 39.7678 90.3934 39.6594 90.2547 39.5883C90.1159 39.5172 89.96 39.4863 89.8046 39.4991C89.4252 39.5612 89.1908 39.9507 88.8427 40.1138C88.6449 40.193 88.4277 40.21 88.2201 40.1624C88.0124 40.1147 87.8243 40.0048 87.6809 39.8473C87.5415 39.6865 87.4361 39.4992 87.3708 39.2966C87.3056 39.0941 87.282 38.8804 87.3013 38.6685Z" fill="#2F2E41"/>
<path d="M129.096 125.098C129.096 125.126 129.09 125.153 129.08 125.179C129.069 125.205 129.054 125.228 129.034 125.248C129.014 125.268 128.991 125.283 128.965 125.294C128.94 125.304 128.912 125.31 128.884 125.31H28.6018C28.5457 125.31 28.4919 125.287 28.4523 125.248C28.4126 125.208 28.3903 125.154 28.3903 125.098C28.3903 125.042 28.4126 124.988 28.4523 124.949C28.4919 124.909 28.5457 124.887 28.6018 124.887H89.8615H128.884C128.912 124.887 128.94 124.892 128.965 124.903C128.991 124.913 129.014 124.929 129.034 124.948C129.054 124.968 129.069 124.991 129.08 125.017C129.09 125.043 129.096 125.07 129.096 125.098Z" fill="#CACACA"/>
<path fill-rule="evenodd" clip-rule="evenodd" d="M87.8264 122.715C87.9752 122.414 88.1694 122.139 88.4017 121.899C88.7842 122.715 89.0911 123.531 89.3068 124.343L87.6853 124.776L87.6516 124.676C87.3749 123.848 87.4369 123.496 87.8264 122.715ZM89.708 124.235L91.6029 123.729L95.6443 122.648L94.5746 119.449L93.9444 119.66L93.8798 119.682L93.6625 119.668L90.8859 119.491L90.7984 119.486L89.7133 121.075C89.357 121.193 89.0242 121.372 88.7297 121.603C89.1558 122.503 89.4822 123.38 89.708 124.235Z" fill="#2F2E41"/>
<path fill-rule="evenodd" clip-rule="evenodd" d="M95.1998 101.71C95.1718 102.719 95.137 103.975 95.137 105.735L96.4562 120.25H100.528L101.847 105.741L101.847 84.7581C104.4 79.4764 101.831 74.1517 101.831 74.1517H92.5936H88.6818H87.2754L85.9465 84.728L84.6336 92.5757C84.2854 92.936 84.0907 93.4175 84.0907 93.9185C84.0907 94.4196 84.2854 94.9011 84.6336 95.2614L84.6354 100.5L86.6456 109.21C86.7879 108.517 86.8647 107.807 86.8722 107.089L86.8728 107.088C87.0114 107.164 87.1465 107.241 87.2798 107.319L87.2792 107.32C87.25 108.269 87.1049 109.203 86.8517 110.103L88.5873 117.624H89.9943H93.2635H93.9831L91.3431 101.784C91.3444 100.057 91.6238 98.3408 92.1707 96.7022L93.8829 91.5656L94.1733 92.8721C95.3038 97.9596 95.2818 98.7537 95.1998 101.708L95.1998 101.71Z" fill="#2F2E41"/>
<path d="M89.3068 124.343L89.708 124.235C89.4822 123.38 89.1558 122.503 88.7297 121.603C88.6875 121.637 88.6462 121.671 88.6056 121.706C88.5348 121.768 88.4667 121.832 88.4017 121.899C88.7842 122.715 89.0911 123.531 89.3068 124.343Z" fill="#2F2E41"/>
<path d="M89.9943 117.624L90.8859 119.491L93.6625 119.668C93.7047 119.496 93.7418 119.323 93.7736 119.149L93.2635 117.624H89.9943Z" fill="#FFB6B6"/>
<path d="M93.8798 119.682L93.9444 119.66L93.7736 119.149C93.7418 119.323 93.7047 119.496 93.6625 119.668L93.8798 119.682Z" fill="#FFB6B6"/>
<path fill-rule="evenodd" clip-rule="evenodd" d="M87.2558 74.2915L100.942 75.4319C100.99 75.4358 101.038 75.4379 101.086 75.438C101.335 75.4374 101.582 75.3815 101.807 75.2743C102.032 75.1671 102.231 75.0114 102.389 74.8182C102.547 74.625 102.66 74.3993 102.721 74.1571C102.781 73.915 102.787 73.6625 102.738 73.4178L101.848 68.9694C101.927 68.2005 103.389 53.6284 101.572 52.1749L97.8941 49.2322L96.9213 47.2866C96.8158 47.0739 96.6528 46.8949 96.4508 46.7701C96.2488 46.6453 96.0159 46.5795 95.7784 46.5803H93.7891C93.4503 46.5807 93.1255 46.7154 92.886 46.955C92.6464 47.1945 92.5117 47.5193 92.5113 47.858V49.2267C91.3451 49.6219 90.3242 50.3579 89.581 51.3397C88.8377 52.3214 88.4062 53.5037 88.3424 54.7334L87.2558 74.2915ZM92.5936 74.1517H88.6818L93.8973 63.7207L92.5936 74.1517Z" fill="#E4E4E4"/>
<path d="M88.6818 74.1517H92.5936L93.8973 63.7207L88.6818 74.1517Z" fill="#E4E4E4"/>
<path d="M87.2798 107.319C87.1465 107.241 87.0114 107.164 86.8728 107.088L86.8722 107.089C86.8647 107.807 86.7879 108.517 86.6456 109.21L86.8517 110.103C87.1049 109.203 87.25 108.269 87.2792 107.32L87.2798 107.319Z" fill="#2F2E41"/>
</svg>
