<svg width="476" height="73" viewBox="0 0 476 73" fill="none" xmlns="http://www.w3.org/2000/svg">
<path d="M51.5422 10.7773C61.1473 10.7773 67.2364 16.6948 67.2364 26.3858V54.0007H53.8148V31.1455C53.8148 26.1714 51.3278 23.3842 47.1255 23.3842C43.4378 23.3842 40.3075 25.9141 40.3075 31.3599V54.0007H26.886V31.1455C26.886 26.1714 24.3989 23.3842 20.2395 23.3842C16.5089 23.3842 13.4215 25.9141 13.4215 31.3599V54.0007H0V11.9351H12.8641V17.2094C15.5227 12.7927 19.7678 10.7773 25.3852 10.7773C30.9167 10.7773 35.6336 13.3073 38.2064 17.8097C41.0365 12.9642 45.7533 10.7773 51.5422 10.7773Z" fill="#FFC800"/>
<path d="M95.7196 10.7773C108.198 10.7773 116.731 19.7822 116.774 32.9465C116.774 34.3186 116.688 36.2054 116.517 37.1059H88.0011C89.116 41.6941 92.3749 43.8381 97.006 43.8381C100.136 43.8381 103.524 42.5517 106.182 40.1504L114.844 48.2119C110.47 52.5857 104.081 55.1156 96.3199 55.1156C83.1128 55.1156 74.1508 46.3251 74.1508 33.2038C74.1508 19.9537 82.9413 10.7773 95.7196 10.7773ZM95.7625 22.1835C91.6031 22.1835 89.0732 24.4562 88.044 28.6156H103.352C102.28 24.4133 99.6646 22.1835 95.7625 22.1835Z" fill="#FFC800"/>
<path d="M144.75 10.8344C156.923 10.8344 165.248 19.619 165.29 32.4613C165.29 33.7999 165.206 35.6405 165.039 36.519H137.221C138.308 40.995 141.487 43.0866 146.005 43.0866C149.059 43.0866 152.364 41.8316 154.957 39.4891L163.407 47.3534C159.14 51.6202 152.907 54.0883 145.336 54.0883C132.452 54.0883 123.709 45.5128 123.709 32.7123C123.709 19.7864 132.284 10.8344 144.75 10.8344ZM144.792 21.9616C140.734 21.9616 138.266 24.1787 137.262 28.2363H152.196C151.151 24.1368 148.599 21.9616 144.792 21.9616Z" fill="white"/>
<path d="M197.055 10.8344C205.254 10.8344 211.613 16.5653 211.613 26.0611V53.0007H198.52V30.7044C198.52 25.8519 196.093 23.1329 192.036 23.1329C188.396 23.1329 185.384 25.601 185.384 30.9136V53.0007H172.291V11.9638H184.841V17.1091C187.434 12.8005 191.576 10.8344 197.055 10.8344Z" fill="white"/>
<path d="M240.449 10.8344C248.063 10.8344 254.045 14.2228 257.977 19.8282L247.728 26.9814C245.678 24.346 243.336 23.0492 240.156 23.0492C235.597 23.0492 231.706 26.5631 231.706 32.4613C231.706 38.4014 235.513 41.8735 240.073 41.8735C243.168 41.8735 245.762 40.493 247.812 37.8994L258.019 45.1782C254.086 50.7418 248.063 54.0883 240.449 54.0883C227.356 54.0883 218.32 45.0108 218.32 32.4613C218.32 19.9119 227.356 10.8344 240.449 10.8344Z" fill="white"/>
<path d="M337.257 10.8344C345.456 10.8344 351.814 16.5653 351.814 26.0611V53.0007H338.721V30.7044C338.721 25.8519 336.295 23.1329 332.237 23.1329C328.598 23.1329 325.586 25.601 325.586 30.9136V53.0007H312.492V11.9638H325.042V17.1091C327.636 12.8005 331.777 10.8344 337.257 10.8344Z" fill="white"/>
<path d="M391.829 11.9638V23.5512H377.816V35.5569C377.816 40.2839 380.326 41.8735 383.63 41.8735C386.057 41.8735 388.692 40.5348 390.742 39.3217L395.26 49.5286C391.411 52.2059 387.312 54.0883 380.702 54.0883C369.7 54.0883 364.723 47.5207 364.723 37.2301V23.5512H357.067V11.9638H364.723V0H377.816V11.9638H391.829Z" fill="white"/>
<path d="M424.165 10.8344C426.089 10.8344 427.762 11.169 428.766 11.4619L427.553 24.5133C425.796 23.9277 423.328 23.4257 420.985 23.4257C416.342 23.4257 413.498 25.7264 413.498 30.8299V53.0007H400.404V11.9638H412.954V16.6908C415.338 12.7168 419.145 10.8344 424.165 10.8344Z" fill="white"/>
<path d="M475.029 11.9638V53.0007H462.354V48.5665C459.885 51.7875 456.121 54.0883 450.557 54.0883C439.597 54.0883 431.482 44.5507 431.482 32.4195C431.482 20.372 439.597 10.8344 450.599 10.8344C456.121 10.8344 459.885 13.177 462.354 16.398V11.9638H475.029ZM453.694 23.0492C448.465 23.0492 444.952 27.1069 444.952 32.4613C444.952 37.8158 448.465 41.8735 453.694 41.8735C458.84 41.8735 462.479 37.8994 462.479 32.4613C462.479 27.0232 458.84 23.0492 453.694 23.0492Z" fill="white"/>
<path d="M275.415 55.0501C280.984 57.3213 287.203 57.4173 292.84 55.3192C298.476 53.2211 303.119 49.082 305.848 43.7221C308.577 38.3622 309.192 32.1728 307.572 26.3805C305.953 20.5882 302.216 15.6157 297.103 12.4486C291.99 9.28153 285.873 8.15091 279.966 9.28084C274.059 10.4108 268.791 13.7188 265.208 18.5493C261.625 23.3798 259.987 29.3803 260.619 35.3614C261.251 41.3426 264.108 46.868 268.622 50.8425L258.342 66.6606C258.043 67.1067 257.838 67.6084 257.737 68.1358C257.637 68.6631 257.643 69.2053 257.757 69.73C257.871 70.2547 258.089 70.7512 258.398 71.1898C258.708 71.6284 259.103 72.0001 259.559 72.2828C260.016 72.5655 260.524 72.7533 261.055 72.8352C261.585 72.917 262.127 72.8912 262.647 72.7591C263.168 72.6271 263.656 72.3916 264.084 72.0667C264.511 71.7419 264.869 71.3342 265.135 70.8681L275.415 55.0501ZM268.902 36.4965C267.932 32.368 268.642 28.0231 270.875 24.4177C273.108 20.8123 276.682 18.2417 280.811 17.2715C284.939 16.3012 289.284 17.0107 292.889 19.2439C296.495 21.4771 299.065 25.0511 300.036 29.1797C301.006 33.3082 300.296 37.6531 298.063 41.2585C295.83 44.8639 292.256 47.4344 288.127 48.4047C283.999 49.375 279.654 48.6655 276.049 46.4323C272.443 44.199 269.873 40.625 268.902 36.4965Z" fill="#FFC800"/>
<path fill-rule="evenodd" clip-rule="evenodd" d="M285.92 22.0024C287.352 22.2363 288.724 22.7508 289.957 23.5162C291.192 24.2791 292.263 25.2782 293.111 26.4563C293.959 27.6352 294.565 28.9701 294.896 30.3842C295.174 31.5726 294.435 32.7612 293.247 33.0389C292.058 33.3166 290.87 32.5783 290.592 31.3899C290.394 30.5428 290.031 29.7432 289.523 29.0371C289.015 28.3309 288.373 27.7321 287.632 27.275L287.627 27.2719C286.889 26.8129 286.066 26.5044 285.208 26.3642C284.349 26.224 283.472 26.2548 282.625 26.4549C281.437 26.7356 280.247 26.0003 279.966 24.8126C279.685 23.6249 280.421 22.4345 281.608 22.1538C283.022 21.8197 284.487 21.7683 285.92 22.0024Z" fill="#FFC800"/>
</svg>
