<svg width="216" height="194" viewBox="0 0 216 194" fill="none" xmlns="http://www.w3.org/2000/svg">
<g clip-path="url(#clip0_1766_21956)">
<path d="M214.105 74.1895C214.027 74.1896 213.952 74.1659 213.889 74.1216L109.087 1.09653C108.768 0.875331 108.389 0.757121 108.001 0.757783C107.613 0.758445 107.235 0.877946 106.916 1.10023L2.8701 74.1208C2.78781 74.1786 2.68596 74.2013 2.58695 74.1839C2.48794 74.1665 2.39988 74.1105 2.34216 74.0281C2.28444 73.9458 2.26177 73.8439 2.27914 73.7448C2.29652 73.6458 2.35252 73.5577 2.43482 73.4999L106.481 0.4793C106.927 0.168153 107.457 0.000896918 108 3.59719e-06C108.543 -0.000889724 109.074 0.164622 109.52 0.474302L214.322 73.4992C214.388 73.5453 214.438 73.6114 214.464 73.6878C214.49 73.7642 214.491 73.847 214.467 73.924C214.442 74.001 214.394 74.0683 214.329 74.1161C214.264 74.1638 214.186 74.1896 214.105 74.1895Z" fill="#3F3D56"/>
<path d="M8.81592 76.7782L108.105 3.1543L208.147 82.0169L113.22 138.32L61.6836 126.567L8.81592 76.7782Z" fill="#E6E6E6"/>
<path d="M66.0336 173.096H16.9826C16.6814 173.097 16.3831 173.038 16.1047 172.923C15.8263 172.808 15.5733 172.639 15.3602 172.426C15.1471 172.213 14.9781 171.96 14.8627 171.682C14.7474 171.403 14.688 171.105 14.688 170.804C14.688 170.502 14.7474 170.204 14.8627 169.925C14.9781 169.647 15.1471 169.394 15.3602 169.181C15.5733 168.968 15.8263 168.799 16.1047 168.684C16.3831 168.569 16.6814 168.51 16.9826 168.511H66.0336C66.3348 168.51 66.6331 168.569 66.9115 168.684C67.1899 168.799 67.4429 168.968 67.656 169.181C67.8691 169.394 68.0382 169.647 68.1535 169.925C68.2688 170.204 68.3282 170.502 68.3282 170.804C68.3282 171.105 68.2688 171.403 68.1535 171.682C68.0382 171.96 67.8691 172.213 67.656 172.426C67.4429 172.639 67.1899 172.808 66.9115 172.923C66.6331 173.038 66.3348 173.097 66.0336 173.096Z" fill="#6800A0"/>
<path d="M34.581 163.238H16.9826C16.6814 163.238 16.3831 163.179 16.1047 163.064C15.8263 162.949 15.5733 162.78 15.3602 162.568C15.1471 162.355 14.9781 162.102 14.8627 161.823C14.7474 161.545 14.688 161.247 14.688 160.945C14.688 160.644 14.7474 160.345 14.8627 160.067C14.9781 159.789 15.1471 159.536 15.3602 159.323C15.5733 159.11 15.8263 158.941 16.1047 158.826C16.3831 158.711 16.6814 158.652 16.9826 158.652H34.581C34.8822 158.652 35.1805 158.711 35.4589 158.826C35.7373 158.941 35.9902 159.11 36.2033 159.323C36.4164 159.536 36.5855 159.789 36.7009 160.067C36.8162 160.345 36.8756 160.644 36.8756 160.945C36.8756 161.247 36.8162 161.545 36.7009 161.823C36.5855 162.102 36.4164 162.355 36.2033 162.568C35.9902 162.78 35.7373 162.949 35.4589 163.064C35.1805 163.179 34.8822 163.238 34.581 163.238Z" fill="#6800A0"/>
<path d="M109.501 117.785C109.128 117.786 108.759 117.713 108.414 117.572L47.1792 92.151V12.5779C47.18 11.8742 47.4597 11.1996 47.957 10.7021C48.4543 10.2045 49.1286 9.92465 49.8318 9.92383H167.306C168.009 9.92465 168.683 10.2045 169.18 10.7021C169.678 11.1996 169.957 11.8742 169.958 12.5779V92.2065L169.843 92.2558L110.621 117.56C110.266 117.709 109.886 117.786 109.501 117.785Z" fill="white"/>
<path d="M109.501 117.975C109.103 117.975 108.71 117.898 108.341 117.748L46.9897 92.2777V12.578C46.9906 11.8241 47.2903 11.1013 47.8231 10.5682C48.3559 10.0351 49.0783 9.73523 49.8319 9.73438H167.306C168.059 9.73523 168.781 10.0351 169.314 10.5682C169.847 11.1013 170.147 11.8241 170.148 12.578V92.3318L110.695 117.734C110.317 117.893 109.911 117.975 109.501 117.975ZM47.7476 91.7712L108.63 117.047C109.198 117.277 109.834 117.274 110.399 117.036L169.39 91.8312V12.578C169.389 12.0251 169.169 11.4951 168.779 11.1042C168.388 10.7132 167.858 10.4933 167.306 10.4927H49.8319C49.2793 10.4933 48.7496 10.7132 48.3588 11.1042C47.9681 11.4951 47.7483 12.0251 47.7477 12.578L47.7476 91.7712Z" fill="#3F3D56"/>
<path d="M213.347 73.4316H213.272L169.768 92.0174L110.247 117.447C110.015 117.545 109.765 117.596 109.513 117.597C109.26 117.598 109.01 117.55 108.777 117.454L47.3684 91.9643L2.79659 73.462L2.7285 73.4316H2.65263C1.94935 73.4324 1.27509 73.7123 0.777797 74.2098C0.280501 74.7074 0.000780348 75.382 0 76.0857V191.346C0.000781349 192.05 0.280502 192.725 0.777797 193.222C1.27509 193.72 1.94935 194 2.65263 194H213.347C214.051 194 214.725 193.72 215.222 193.222C215.719 192.725 215.999 192.05 216 191.346V76.0857C215.999 75.382 215.719 74.7074 215.222 74.2098C214.725 73.7123 214.051 73.4324 213.347 73.4316ZM215.242 191.346C215.242 191.849 215.042 192.331 214.687 192.687C214.332 193.042 213.85 193.242 213.347 193.242H2.65263C2.15018 193.242 1.66836 193.042 1.31307 192.687C0.957786 192.331 0.758096 191.849 0.757895 191.346V76.0857C0.758582 75.5954 0.948642 75.1244 1.28834 74.7711C1.62803 74.4178 2.09107 74.2096 2.58065 74.1899L47.3684 92.7833L108.485 118.156C109.147 118.425 109.888 118.421 110.547 118.144L169.768 92.8402L213.423 74.1899C213.912 74.211 214.374 74.4199 214.713 74.773C215.051 75.1261 215.241 75.5962 215.242 76.0857V191.346Z" fill="#3F3D56"/>
<path d="M108.889 95.2216C106.628 95.2259 104.427 94.4945 102.619 93.1378L102.506 93.0536L78.8939 74.9654C77.8003 74.1271 76.8825 73.0815 76.1929 71.8883C75.5032 70.695 75.0552 69.3776 74.8744 68.0112C74.6936 66.6447 74.7836 65.256 75.1392 63.9244C75.4949 62.5927 76.1091 61.3442 76.947 60.2501C77.7849 59.156 78.83 58.2377 80.0225 57.5476C81.2151 56.8576 82.5319 56.4094 83.8976 56.2285C85.2633 56.0476 86.6513 56.1376 87.9822 56.4934C89.3132 56.8493 90.561 57.4639 91.6546 58.3022L106.949 70.0359L143.092 22.8751C143.93 21.7812 144.976 20.8633 146.169 20.1737C147.362 19.4841 148.678 19.0363 150.044 18.8559C151.41 18.6755 152.798 18.7661 154.129 19.1224C155.46 19.4787 156.707 20.0938 157.8 20.9325L157.576 21.2378L157.806 20.9369C160.011 22.6327 161.454 25.1344 161.818 27.8933C162.182 30.6521 161.438 33.4428 159.748 35.653L117.235 91.1254C116.251 92.4037 114.987 93.4382 113.54 94.1486C112.092 94.8589 110.501 95.2261 108.889 95.2216Z" fill="#6800A0"/>
</g>
<defs>
<clipPath id="clip0_1766_21956">
<rect width="216" height="194" fill="white"/>
</clipPath>
</defs>
</svg>
